<svg id="Layer_1" data-name="Layer 1" xmlns="http://www.w3.org/2000/svg" viewBox="0 0 1200.67 275.33"><path d="M1209.67,244a11.28,11.28,0,0,1-1.62.23q-6.75,0-13.5,0c-.48,0-1-.06-1.66-.1v-2.22c0-11.88.08-23.77-.06-35.65a38,38,0,0,0-1.2-9.52c-1.79-6.56-6.72-9.22-13.2-7.21-2.2.68-4.15,2.21-6.13,3.48-.35.23-.45,1.14-.37,1.7.5,3.55,1.51,7.08,1.57,10.63.2,12.21.08,24.43.08,36.65v2.11H1157c0-.67-.13-1.36-.13-2.05,0-11.66.06-23.33,0-35a48.76,48.76,0,0,0-.95-9.41c-.83-4-2.86-7.24-7.12-8.43-3.62-1-9.76,1.3-11.72,4.41a2.51,2.51,0,0,0-.18,1.38c.21,2.59.65,5.17.66,7.76.07,13.11,0,26.21,0,39.32v2h-16.82v-2c0-14.16,0-28.32,0-42.48a29.32,29.32,0,0,0-.72-6.26c-.86-3.79-2.89-5.39-6.78-5.68-.77-.06-1.55,0-2.45,0V183.9c.35,0,.72-.13,1.09-.14,4.11,0,8.23-.08,12.33,0s8,1,10.36,5.07a24.44,24.44,0,0,1,17.37-6.38,24.13,24.13,0,0,1,16.91,7.21,22.28,22.28,0,0,1,10.92-6.43,32.78,32.78,0,0,1,15.81.29c7.91,2.17,12,7.74,13.42,15.54.26,1.41.45,2.83.68,4.25Z" transform="translate(-9 -6)"/><path d="M9,138.67c.32-3.48.58-6.95,1-10.42a133,133,0,0,1,23.73-63q31.81-45,85.89-56.46a123,123,0,0,1,23.13-2.59A9.48,9.48,0,0,0,144,6h5.33c2.87.21,5.73.4,8.6.64A133.76,133.76,0,0,1,230.81,35c27.46,21.5,45,49.43,51,83.81,7.82,45-3.85,84.88-34.8,118.61-21.32,23.23-48,37.06-79.14,42.06-5.79.93-11.7,1.08-17.56,1.6a8.09,8.09,0,0,0-.95.21H144c-2.92-.21-5.84-.39-8.76-.63a134.43,134.43,0,0,1-75.49-30.51c-24.29-19.9-40-45.26-47.23-75.86A131.67,131.67,0,0,1,9.22,150,9.66,9.66,0,0,0,9,148.67Zm1.09,4.9C10,218,70.13,279.76,145.84,280.17c76.14.4,136.18-61,137.27-134.41,1.12-75.35-59.46-138.2-135.74-138.6S10.13,68.7,10.09,143.57Z" transform="translate(-9 -6)"/><path d="M1041.13,187.75l1.52,3.09-6.48,5a4,4,0,0,1-.67-.56c-3.64-4.64-8.44-5.05-13.69-3.73a13.92,13.92,0,0,0-2.35.82c-3.55,1.61-3.76,2-3.35,5.88.06.6.13,1.21.13,1.82v42.66c0,.44,0,.87-.09,1.43H999.67c0-.7-.11-1.4-.11-2.09,0-13.5,0-27,0-40.5a45.87,45.87,0,0,0-.56-7.12c-.78-4.75-3.14-6.66-8-6.77h-1.55v-4c5.74.17,11.4.17,17,.57,3,.21,4.24,1.35,6.42,4.12,8.07-5.92,16.6-8.1,26.07-3,.08-.4.17-.86.28-1.39.48,0,.92-.09,1.35-.09,5.6.06,11.22,0,16.81.26,4.41.24,6.93,2.56,7.83,6.88a43,43,0,0,1,.84,8.09c.11,7.55-.08,15.11.1,22.66a50.89,50.89,0,0,0,1.18,10.38c2.06,8.91,11.63,9.32,16.28,5.35a33.51,33.51,0,0,0,4.53-5.25,3.84,3.84,0,0,0,.47-2.21q0-22,0-44v-2.07h16.56v60.37c-3.48,0-6.91,0-10.33,0-.39,0-.83-.49-1.12-.85-1.09-1.33-2.17-2.68-3.17-4.07-.67-.93-1.15-.85-2-.11a26.26,26.26,0,0,1-30.19,3.14c-5-2.88-7.39-7.53-8.35-13a44.65,44.65,0,0,1-.63-7.12c-.09-7.94,0-15.89-.13-23.83a21.11,21.11,0,0,0-.84-5.4C1047.47,189.35,1045.2,187.78,1041.13,187.75Z" transform="translate(-9 -6)"/><path d="M458.89,69.62c7.59-7.78,16.86-8.45,26.61-6.14,7.81,1.86,12,7.42,13.43,15.1a42.19,42.19,0,0,1,.68,7.44c.07,12,0,24.11,0,36.16v1.94H483c0-.74-.09-1.44-.09-2.14,0-12.28,0-24.55,0-36.83a34.51,34.51,0,0,0-.77-7.09c-2-9.27-9-11.09-16.62-7.47a11.34,11.34,0,0,0-1.42.85c-2.43,1.67-2.32,1.86-1.67,4.7A43,43,0,0,1,463.58,85c.13,12.71.06,25.44.06,38.16,0,.27,0,.55-.08,1.07H461c-4.11,0-8.23-.06-12.33,0-1.41,0-1.78-.42-1.77-1.79.05-11.88.08-23.77,0-35.66a81.73,81.73,0,0,0-.85-9.08,10.73,10.73,0,0,0-1-3c-2.37-5.29-7.37-7.22-12.69-4.91a23.8,23.8,0,0,0-2.62,1.44c-2.09,1.25-3.57,2.67-2.45,5.5a11.69,11.69,0,0,1,.38,4.12q0,20.91,0,41.82c0,.44-.05.87-.08,1.41H410.89v-2.21c0-13.56.05-27.11,0-40.66a39.46,39.46,0,0,0-.93-8.4c-.8-3.5-3-5-6.61-5.23l-2.53-.14V63.93c.07,0,.15-.18.24-.18,4.77,0,9.55-.13,14.32,0,3.73.14,7.12,1.3,9.22,5a24.69,24.69,0,0,1,17.3-6.39A24.35,24.35,0,0,1,458.89,69.62Z" transform="translate(-9 -6)"/><path d="M382.46,204.58q6.07,10.11,12.16,20.25c2.42,4.06,4.91,8.06,8.38,11.35a16.42,16.42,0,0,0,7.48,4.48c1.45.34,1.26,1.22,1.32,2.21a1.52,1.52,0,0,1-1.38,1.85c-9.74,2.21-18.34.27-24.81-7.62a160,160,0,0,1-10.31-14.88c-3.19-4.95-6.13-10.05-9.06-15.15a2.89,2.89,0,0,0-3.16-1.74,27.8,27.8,0,0,1-3.06,0v38.79h-16.8v-2.21q0-32.76,0-65.5a38.77,38.77,0,0,0-.56-6.46c-.83-4.72-3.2-6.63-8-6.73-.49,0-1-.05-1.6-.08v-3.85h1.82c12,0,23.89,0,35.83.08a53.19,53.19,0,0,1,21.64,4.73c7.59,3.43,10.49,9.73,10.82,17.66.38,9.36-4.08,15.64-12.27,19.53C388.22,202.56,385.4,203.45,382.46,204.58Zm-22.34-4.35c4.72-.17,9.35.57,13.83-.93,5.88-2,9.8-5.82,10.71-12.14a36.91,36.91,0,0,0,.29-7.79c-.5-7.42-5.3-12.82-12.57-14.44-4.1-.91-8.14-.33-12.26.53Z" transform="translate(-9 -6)"/><path d="M787,244.16H770.31V242q0-32.9,0-65.81a34.26,34.26,0,0,0-.69-6.77c-.85-4.18-3.21-6-7.48-6.14-.65,0-1.3,0-2,0v-3.75a6.17,6.17,0,0,1,1.06-.17c5,0,9.89,0,14.83.05,7,.14,10.16,3,10.65,10,.35,5.14.29,10.31.41,15.47,0,.65,0,1.31,0,2.29.73-.42,1.25-.69,1.73-1,9-5.94,22-4.17,29.52,1.38,4.53,3.35,6.37,8.12,7,13.46a54.59,54.59,0,0,1,.34,6.64c0,11.44,0,22.88,0,34.32v2.13H809c0-.7-.11-1.4-.11-2.1,0-11.82.05-23.65,0-35.48a37.51,37.51,0,0,0-.87-7.91c-2-8.85-9.52-12.1-17.46-7.68a1.59,1.59,0,0,1-.29.15c-2.37,1.12-3.33,2.76-3.29,5.59.17,15.11.08,30.21.08,45.32Z" transform="translate(-9 -6)"/><path d="M395,67.37h-3.42c-.53-2.19-1-4.4-1.61-6.56-1.56-5.35-3.71-10.47-8.45-13.78-7-4.88-14.74-5.9-22.57-2.43-7.41,3.28-9,13.38-3.18,19a49.51,49.51,0,0,0,8.38,6.25c7.38,4.62,14.9,9,22.34,13.54,1.23.75,2.3,1.74,3.47,2.58,13.28,9.58,10.62,30.39-4.93,37-6.49,2.74-13.26,3.5-20.2,3.37A44.82,44.82,0,0,1,347,122.61a29,29,0,0,1-5.14-3,11,11,0,0,1-4.88-9.83c.17-4.53,0-9.08,0-13.54.24-.14.33-.23.42-.24,3-.26,2.93-.23,3.7,2.74a66.42,66.42,0,0,0,2.74,8.87c3.27,7.9,9.55,11.92,17.86,12.7a37.53,37.53,0,0,0,9.76-.33c4.77-.8,8.77-3.13,10.14-8.2,1.42-5.24.27-10-4-13.57a117.93,117.93,0,0,0-11.47-8.23c-4.56-3-9.4-5.48-13.93-8.48A59.9,59.9,0,0,1,343,74.22c-8.68-8.64-9.58-28.42,8.23-34.78,12.09-4.32,24.16-3.36,35.71,2.26a21.36,21.36,0,0,1,6,4.87A7.63,7.63,0,0,1,394.88,51C395.11,56.41,395,61.79,395,67.37Z" transform="translate(-9 -6)"/><path d="M842.56,67.5c0-.85,0-1.51,0-2.16,0-.49.06-1,.1-1.65H848c3,0,5.89-.07,8.83,0,4.69.17,6.52,1.12,9.26,4.46,9.1-6.7,19.18-7,29.54-4.27,8.18,2.2,12.17,8.26,13.29,16.38a44.12,44.12,0,0,1,.39,6c0,12.11,0,24.22,0,36.33,0,.48-.06,1-.09,1.55H892.65v-2c0-12,0-24.11,0-36.16a35.89,35.89,0,0,0-.57-6.29c-1.48-8.21-6.67-12-14.88-10.63-2.55.44-5,1.74-7.4,2.75-.95.4-1.23,1.16-.94,2.32a19.6,19.6,0,0,1,.59,4.77q.06,21.75,0,43.49c0,.54-.06,1.08-.1,1.7H852.69v-1.94c0-14.28,0-28.55,0-42.83a28,28,0,0,0-.76-6.25c-.87-3.66-3-5.26-6.77-5.49Z" transform="translate(-9 -6)"/><path d="M769.17,102.67c1.21.93,2.4,1.84,3.58,2.76.21.17.4.37.7.65a43.72,43.72,0,0,1-9.34,11.8c-6.17,5.44-13.54,7.88-21.58,8.57-8.8.76-17.45.2-25.57-3.65a37.51,37.51,0,0,1-20.65-24.18c-4-13.35-3.34-26.55,3.21-39,8.38-15.88,21.8-23.58,39.83-22.94,7.68.28,15.07,1.67,21.85,5.62,5.71,3.33,8.84,8.07,8.81,14.77,0,3.1,0,6.2,0,9.44h-3.43c-.82-2.55-1.51-5.12-2.48-7.58-4.19-10.7-12-16.41-23.56-16.5-12.22-.09-21.29,6.1-25.15,17.07a54.5,54.5,0,0,0-2.53,10.65c-1.21,8.61-1.53,17.29.53,25.82a55,55,0,0,0,4.22,11.67c5,10,13.68,13.84,24.46,13.19,11.57-.69,20-6.66,25.86-16.42l.93-1.57S769,102.82,769.17,102.67Z" transform="translate(-9 -6)"/><path d="M987.11,214.05c-.05,9.52-2.91,17.91-10.27,24.32-6.33,5.51-13.86,7.43-22.09,7.12A30,30,0,0,1,938,240.17c-7-4.92-10.85-11.76-12.13-20.08-1.4-9.09-.13-17.74,5.27-25.41,5.05-7.18,12.18-11,20.84-12,6.8-.74,13.44,0,19.54,3.31,10.28,5.66,14.92,14.76,15.55,26.19C987.14,212.83,987.11,213.44,987.11,214.05Zm-17.23,0c-.18-2.6-.26-5.22-.56-7.8a29.78,29.78,0,0,0-4.06-12.74c-4.45-7-13.42-7.05-17.86,0a23.82,23.82,0,0,0-2.7,6,54.81,54.81,0,0,0-.82,25.87,22.44,22.44,0,0,0,4.65,10.71,10,10,0,0,0,15.65-.21,22.84,22.84,0,0,0,3.17-5.8C969.35,224.94,969.8,219.52,969.88,214Z" transform="translate(-9 -6)"/><path d="M809.42,125.45c-17.6,0-30.15-12.2-30.74-29.78-.21-6.15.67-12.08,3.59-17.55,5.51-10.29,14.38-15.21,25.84-15.67,8.66-.35,16.49,1.91,22.92,8a29.72,29.72,0,0,1,9.08,19c.89,8-.24,15.62-4.57,22.55C830.05,120.73,820.84,125.45,809.42,125.45Zm13.65-33c-.15-1.64-.31-4.81-.78-7.93-.66-4.42-1.9-8.69-4.72-12.29a10,10,0,0,0-16-.05A24.23,24.23,0,0,0,798,79.19c-2.4,7.42-2.44,15.07-1.51,22.74a28.88,28.88,0,0,0,4.25,12.83c2.73,4.1,7,5.8,11.56,4.53,3.66-1,5.81-3.74,7.34-7C822.39,106.46,823,100.23,823.07,92.4Z" transform="translate(-9 -6)"/><path d="M630.39,208.89c0-5.08-.18-9.84-2.18-14.3a10,10,0,0,0-9.41-6.27c-4.84-.12-9.07,1.12-11.45,5.81a24.61,24.61,0,0,0-1.66,4.51c-.25.9-.55,1.32-1.54,1.29-1.87-.07-3.75,0-5.79,0-.06-3.78,0-7.35,1.59-10.7a9.72,9.72,0,0,1,6.8-5.17,49.14,49.14,0,0,1,21.94-.77c10.31,2.06,16.54,8.83,17.94,19.24a68.45,68.45,0,0,1,.59,8.46c.06,10.33,0,20.67,0,31v2.27a40.61,40.61,0,0,0-5.85,0c-3.79.58-6.51-.65-8.31-4a13.62,13.62,0,0,0-1.62-2c-.82.87-1.47,1.61-2.18,2.3-3.52,3.47-7.9,4.85-12.71,4.94a30.08,30.08,0,0,1-13.18-2.27c-6.66-3-10.18-9.44-9.61-16.74.64-8.08,5-12.87,12.51-15.16,6.44-2,13.08-2.35,19.75-2.47C627.42,208.87,628.8,208.89,630.39,208.89Zm0,5.79a32.9,32.9,0,0,0-11,1.19c-4.37,1.37-7.21,4.25-7.8,8.79a31.11,31.11,0,0,0,.2,8.06,7.25,7.25,0,0,0,3.94,5.49c5.19,2.76,14.22-1.84,14.64-7.73C630.7,225.3,630.4,220.07,630.4,214.68Z" transform="translate(-9 -6)"/><path d="M888.6,244.17H871.76v-2.12q0-32.91,0-65.82A32.71,32.71,0,0,0,871,169c-.87-3.89-3.12-5.54-7.11-5.72-.71,0-1.43,0-2.32,0,0-.71-.08-1.3-.09-1.89s0-1.2,0-1.89a7.34,7.34,0,0,1,1.07-.15c17.94,0,35.88,0,53.81.06,6.63,0,10,3.61,10,10.22v10.88h-3.77c-.09-1.14-.12-2.29-.29-3.42-1-7-5-11.14-12-11.61s-14.09-.22-21.14-.28c-.09,0-.19.09-.39.19V198h28v5.7H888.6Z" transform="translate(-9 -6)"/><path d="M512.37,79.78c.19-2.36.31-4.41.55-6.44.59-5.21,3.56-8.38,8.59-9.55A50.23,50.23,0,0,1,543,63.21c10.48,2.14,16.76,9.24,18,20a61.44,61.44,0,0,1,.38,6.64c0,10.72,0,21.45,0,32.17v2.21c-3.59,0-7.06,0-10.54,0-.37,0-.78-.54-1.08-.91-1.32-1.64-2.6-3.3-3.89-5-.28.12-.48.14-.57.25-4.18,5.32-9.83,7.1-16.35,6.88-4.6-.15-9.08-.78-13.1-3.2-6.1-3.67-8.3-9.28-7.77-16.14.49-6.48,3.53-11.19,9.66-13.76,5.36-2.25,11-3,16.73-3.29,3.31-.17,6.64,0,10.27,0-.4-6.59,0-13-4.72-17.9s-15-3.5-18.31,2.69a28.62,28.62,0,0,0-1.8,4.81c-.25.79-.56,1.2-1.47,1.17C516.48,79.73,514.55,79.78,512.37,79.78ZM544.64,94.7c-4.27-.2-8.28,0-12.13,1.47a10.07,10.07,0,0,0-6.06,5.8,16.8,16.8,0,0,0-.1,12,7.33,7.33,0,0,0,7.31,5c4.89,0,7.93-2.93,10.26-6.82a4.28,4.28,0,0,0,.69-2C544.67,105.1,544.64,100,544.64,94.7Z" transform="translate(-9 -6)"/><path d="M1048.35,88.89c0-5.43-.17-10.53-2.63-15.19-2-3.72-5.22-5.46-9.42-5.45-4.39,0-8.32,1.09-10.64,5.2a28,28,0,0,0-2,5.08c-.28.86-.59,1.31-1.58,1.27-1.87-.07-3.75,0-5.77,0,0-3.74,0-7.27,1.55-10.57a9.37,9.37,0,0,1,6.45-5.12c8.19-2.08,16.48-2.6,24.68-.3,9.41,2.63,14.18,9.4,15.62,18.76a48.67,48.67,0,0,1,.48,7.14c.05,10.77,0,21.55,0,32.33v2.21c-3.58,0-7,0-10.42,0-.43,0-.92-.56-1.25-1-1.32-1.63-2.59-3.3-3.94-5a6.28,6.28,0,0,0-.74.65,16.74,16.74,0,0,1-11.33,6.36,32.32,32.32,0,0,1-14.15-1.25c-8.16-2.75-12.4-9.68-11.48-18.24.76-7,4.39-11.53,10.94-13.9,6.09-2.19,12.44-2.72,18.83-2.92C1043.77,88.83,1046,88.89,1048.35,88.89Zm0,5.4c-3.57.43-6.9.6-10.12,1.28-4.77,1-8,4-8.72,8.9a26.62,26.62,0,0,0,.26,8.4,7.22,7.22,0,0,0,6.45,6.09c4.67.7,10.94-3.54,12.07-8.13a2.07,2.07,0,0,0,0-.5C1048.36,105.17,1048.36,100,1048.36,94.29Z" transform="translate(-9 -6)"/><path d="M467.49,216.3H428.77c.08,5.9.31,11.59,3.13,16.78,3.12,5.74,8.66,7.8,15.89,6.15,5-1.15,8.6-4.41,11.86-8.14.54-.62,1-1.26,1.68-2l4,3c-5.1,7.41-11.34,12.69-20.67,13.35a34.08,34.08,0,0,1-14.26-1.58,26.76,26.76,0,0,1-16.14-15.39,37.48,37.48,0,0,1,.32-30.42c4.17-9.44,11.85-14.36,22.07-15.34a30.68,30.68,0,0,1,17.89,3.29c9.85,5.3,14,13.78,13.42,24.78C467.85,212.53,467.66,214.34,467.49,216.3ZM451,210.43c-.51-4.23-.84-8.3-1.56-12.31a16.2,16.2,0,0,0-2.26-5.65c-3.49-5.49-10.54-5.7-14.34-.44-4,5.5-3.82,11.94-4.05,18.4Z" transform="translate(-9 -6)"/><path d="M588.05,216.27h-38.7a29.93,29.93,0,0,0,0,3.68,68.39,68.39,0,0,0,1.32,8.7c2.33,9,8.77,12.68,17.82,10.53,4.56-1.08,7.88-3.93,10.91-7.25.83-.9,1.58-1.86,2.44-2.87l4,2.95c-3.37,5.05-7.27,9.48-12.91,11.5-10.06,3.58-19.9,2.93-28.87-3.38a27.48,27.48,0,0,1-11.15-17.39c-1.94-9.26-1.47-18.38,3.22-26.84,4.51-8.14,11.71-12.36,20.89-13.24,7.52-.72,14.63.62,20.91,5,7.64,5.33,10.94,12.85,10.56,22.07C588.4,211.88,588.21,214,588.05,216.27Zm-17-5.8a43.45,43.45,0,0,0-1.51-14,15.73,15.73,0,0,0-2.08-4.33c-3.57-5.13-10.35-5.19-14.11-.2a10.75,10.75,0,0,0-.93,1.38c-2.88,5.37-3.06,11.2-3.11,17.15Z" transform="translate(-9 -6)"/><path d="M522.53,202.9c-3.93.41-3.93.41-5.11-3.22-3.51-10.79-12.89-12.79-21-10.67a7.49,7.49,0,0,0-5.7,6.5,7.16,7.16,0,0,0,3.21,7.67,65.66,65.66,0,0,0,7,3.82c5.38,2.6,10.92,4.91,16.19,7.72,4.26,2.27,7.3,5.77,8,10.83.89,6.25-.89,11.42-6.27,15a29.07,29.07,0,0,1-13.26,4.51c-7.22.81-14.42.71-21.41-1.54-3.79-1.21-7.39-3-8.17-7.45-.63-3.57-.72-7.24-1.07-11.13a36.49,36.49,0,0,1,4,0c.36,0,.79.62,1,1.05.41,1.08.61,2.24,1,3.33,2.62,6.75,7.75,10.34,15,10.23a32.79,32.79,0,0,0,7.7-1,7.23,7.23,0,0,0,5.6-6.7,6.77,6.77,0,0,0-3.68-7.1c-4.33-2.34-8.78-4.46-13.26-6.51-4.71-2.14-9.41-4.28-13.16-8a14.9,14.9,0,0,1,2.65-23.7,28.69,28.69,0,0,1,13.74-4,50.6,50.6,0,0,1,18.12,1.74c5.33,1.64,8.77,4.88,8.88,10.81C522.57,197.72,522.53,200.26,522.53,202.9Z" transform="translate(-9 -6)"/><path d="M657.89,63.61v5.73c-.58,0-1.16.1-1.74.1-3.61,0-7.22,0-10.83,0-1.11,0-1.57.26-1.56,1.47,0,12.06,0,24.11,0,36.16a40.56,40.56,0,0,0,.58,6.78c.78,4.53,3.63,6.58,8.12,5.62a76.12,76.12,0,0,0,8.4-2.77,16.64,16.64,0,0,1,1.29,2.61c.11.34-.41,1.06-.82,1.38-4.51,3.61-9.81,4.73-15.43,4.76-4.59,0-9-.75-12.69-3.68-4.69-3.69-6.1-8.87-6.14-14.49-.09-11.89,0-23.77,0-35.66V69.49H619.5V63.76h7.59c0-2.87.14-5.57,0-8.26a7.05,7.05,0,0,1,2.13-6c1.62-1.59,2.69-4,4.56-4.94s4.35-.22,6.57-.24h3.46V63.61Z" transform="translate(-9 -6)"/><path d="M940.9,63.69H955v5.69H941.14a9.77,9.77,0,0,0-.16,1.11c0,13.05,0,26.09.08,39.14a22.24,22.24,0,0,0,1,5.88c.83,2.84,2.94,4.21,5.9,4.15a17.42,17.42,0,0,0,9.89-3.47c.63,1.23,1.2,2.35,1.82,3.54a19.17,19.17,0,0,1-8,4.55,30.07,30.07,0,0,1-14.17.65c-8.11-1.56-13.09-8-13.12-17-.05-12,0-24.09,0-36.14V69.54H916.7V63.73h7.61c0-3.44.05-6.69,0-9.95a4.23,4.23,0,0,1,1.14-3.14c1.56-1.73,3-3.59,4.52-5.33a2.65,2.65,0,0,1,1.6-.91c3.05-.08,6.11,0,9.35,0Z" transform="translate(-9 -6)"/><path d="M1157.67,44.36V63.68h14v5.75h-14v2c0,12.33,0,24.67,0,37a28.8,28.8,0,0,0,.86,6.73c.78,3.13,2.94,4.56,6.14,4.51,2.8,0,4.38-.58,9.81-3.36.58,1.15,1.17,2.31,1.77,3.47-4.73,4.26-10.33,5.62-16.38,5.67-4.71,0-9.21-.73-13-3.8-4.74-3.85-6-9.16-6-14.9,0-11.56,0-23.12,0-34.67,0-3,.35-2.59-2.7-2.62-1.55,0-3.1,0-4.8,0V63.76h7.51a47,47,0,0,0-.05-6.07c-.51-3.93.88-6.89,3.43-9.88,2.18-2.55,4.27-4,7.68-3.5A40,40,0,0,0,1157.67,44.36Z" transform="translate(-9 -6)"/><path d="M1128,84.9h-3.81c-.39-1.85-.65-3.66-1.16-5.39-2-6.63-7.08-10.56-14-11.22-8.84-.84-13.56,4.1-15.7,10.74a48.81,48.81,0,0,0-.21,29.51c3.37,11.15,15.55,14.87,25.07,7.85a63.65,63.65,0,0,0,6.26-5.94c.42-.42.78-.92,1.22-1.45l4,3c-5.1,7.55-11.54,12.7-20.87,13.34a39.87,39.87,0,0,1-13.55-1c-8.79-2.41-15.19-7.72-18.64-16.18-4.13-10.11-4-20.32.8-30.16,4.47-9.14,12.2-14,22.18-15.24A51.67,51.67,0,0,1,1119.14,64c5,1.31,8,4.37,8.36,9.67C1127.74,77.35,1127.85,81.05,1128,84.9Z" transform="translate(-9 -6)"/><path d="M760.15,204.91h-3.88c-.32-1.68-.54-3.32-1-4.91A16.15,16.15,0,0,0,735,188.8c-4.23,1.28-6.91,4.31-8.71,8.18-2.56,5.52-3.19,11.45-2.94,17.4a62,62,0,0,0,1.71,13.47c3.12,11.69,15.32,15.82,25.18,8.66,2.79-2,5.13-4.69,7.85-7.22l3.67,2.7c-.56.82-1.06,1.59-1.61,2.33-6.27,8.45-14.76,11.82-25.11,11.18a33.14,33.14,0,0,1-13.47-3.28,27,27,0,0,1-13.32-15.13c-3.38-9.32-3.34-18.66.67-27.74,4.49-10.15,12.63-15.47,23.52-16.63a54.45,54.45,0,0,1,17.54,1c5.93,1.3,8.76,3.89,9.41,9.09C759.93,196.75,759.93,200.75,760.15,204.91Z" transform="translate(-9 -6)"/><path d="M592.47,124.14H575.76v-2c0-14.71,0-29.42-.1-44.13a20.4,20.4,0,0,0-.84-5.24c-.93-3.33-2.93-4.84-6.37-5.1-.88-.07-1.76-.09-2.71-.14V63.94c.08-.06.17-.19.25-.19,5.22,0,10.43,0,15.64.19a8.53,8.53,0,0,1,7.5,4.42l1.37-1c6-4.39,12.58-6,19.81-4.29a11.47,11.47,0,0,1,8.53,7.75l-6.4,4.93a3.2,3.2,0,0,1-.56-.45c-3.82-4.86-8.81-5.33-14.26-3.67A19.06,19.06,0,0,0,592.94,74,2.57,2.57,0,0,0,592.2,76c0,1.94.35,3.87.36,5.81q0,20.4,0,40.81C592.57,123.07,592.51,123.56,592.47,124.14Z" transform="translate(-9 -6)"/><path d="M651.53,183.76c2,0,4,0,5.87,0,3.27.05,6.55.06,9.82.22a8.8,8.8,0,0,1,7.7,4.41l1.9-1.36a23.19,23.19,0,0,1,19.11-4,11.65,11.65,0,0,1,8.73,7.81L697.93,196a3.5,3.5,0,0,0-.44-.85,13.82,13.82,0,0,0-18.35-1.5,2.59,2.59,0,0,0-1.18,2.65c.23,2.37.33,4.76.33,7.14q0,19.32,0,38.65v2H661.68c0-.71-.12-1.41-.12-2.1,0-14.1,0-28.21,0-42.31a28.25,28.25,0,0,0-.78-6.41c-.91-3.86-3-5.42-7-5.66-.71,0-1.43,0-2.25,0Z" transform="translate(-9 -6)"/><path d="M957.08,67.51V63.94c.06-.06.15-.19.23-.19,5.21,0,10.43,0,15.64.19a8.57,8.57,0,0,1,7.46,4.31c1.63-1,3.14-2.18,4.79-3,5.54-2.86,11.35-3.74,17.38-1.86a10.93,10.93,0,0,1,7.09,6.34,1.78,1.78,0,0,1-.25,1.63c-1.81,1.53-3.74,2.93-5.71,4.43-.29-.28-.53-.49-.75-.71a13.71,13.71,0,0,0-18.5-1.28,2.09,2.09,0,0,0-1,2.37,20.41,20.41,0,0,1,.3,4.14q0,21,0,42v1.88H967.09v-2c0-14.61,0-29.21-.1-43.81a22.09,22.09,0,0,0-.78-5.41c-.92-3.48-3-5.05-6.58-5.29Z" transform="translate(-9 -6)"/><path d="M54.22,143.59c0-51.48,42.39-93,93.62-92.31,50.22.63,92.24,42.23,91.14,94.46a92.55,92.55,0,0,1-93.78,90.31C95.44,235.32,54.18,194.59,54.22,143.59Zm1,.13A91.37,91.37,0,1,0,147.72,52.3,91.51,91.51,0,0,0,55.24,143.72Z" transform="translate(-9 -6)"/><path d="M33.24,119.17l7.85,2.15-.21.75-10.59-2.72c-.06-1.53.43-2.23,1.93-2.44,2.38-.33,4.72-1,7.44-1.52-2-1.58-3.79-2.94-5.54-4.28-1.59-1.22-1.59-1.21-.91-3.19,3.92.28,7.51,2.86,11.62,2-.42,1.93-1.52,2.72-3.51,2.29s-3.73-.94-5.73-1.18l7,5.4-.16.49-9.15,1.88Z" transform="translate(-9 -6)"/><path d="M262.72,118.33c.8,1.56.25,2.34-.9,3.09-2,1.28-3.83,2.74-6.06,4.35,2.66.63,4.89,1.23,7.16,1.66,1.44.27,2,1,1.7,2.51-3.61,1.29-7.87.56-11.28,2.85-.63-1.52.15-3,2.25-3.42,1.89-.41,3.8-.69,5.72-1.29l-9.14-2.23,8.22-5.93-.13-.28L252.05,121l-.13-.71C255.48,119.36,259.15,119,262.72,118.33Z" transform="translate(-9 -6)"/><path d="M39.54,155.11c.21,1.78.52,3.79.68,5.82.1,1.34.06,2.93-1.5,3.32-1,.27-2.27-.23-3.58-.4a5.45,5.45,0,0,1-1.22,1.63,2.5,2.5,0,0,1-3.87-1.17c-.75-2.05-1.13-4.23-1.69-6.42C32.12,156.55,36.15,157.33,39.54,155.11Zm-5.6,4c-1.11.17-2.25.31-3.38.54-.31.06-.84.46-.81.58A6.63,6.63,0,0,0,30.86,163a2.83,2.83,0,0,0,2.41.15C34.52,162.71,34.71,161.2,33.94,159.09Zm.54-.09c.78,1.25,1.19,2.36,2,3a2.26,2.26,0,0,0,2.21-.36c.56-.84.6-2,.94-3.4Z" transform="translate(-9 -6)"/><path d="M228,57.06c.82.9,2.51,1.46,1.56,3A18.06,18.06,0,0,1,227,62.92c.8.86,1.54,1.67,2.3,2.47.22.23.49.43.8.7l3.62-3.38L234.89,64c-2,2.14-3.95,4.16-5.8,6.27a11.77,11.77,0,0,0-1.26,2.33c-2-1.12-2.17-2.11-.29-4,.59-.58,1.21-1.13,2-1.83l-3.12-3.31-3.93,3.67-1.7-1.59c1.45-1.36,2.93-2.6,4.21-4S228.41,59.55,228,57.06Z" transform="translate(-9 -6)"/><path d="M245.25,100.59l-.86-2a57.8,57.8,0,0,0,5.35-2.31c1.54-.85,4-.57,4.64-3.29.75,2.26,1.59,4.51,2.22,6.8a2.34,2.34,0,0,1-1.44,2.87,2.66,2.66,0,0,1-3.2-.53l-.86-.74-3.41,5.39a6.31,6.31,0,0,1-.53-2.44,9.29,9.29,0,0,1,1.41-2.79c.5-.83,1.09-1.6,1.64-2.4l-.27-.38Zm9.55-4-4.09,1.72c.82,2.19,1.8,2.77,3.32,2.12S255.9,98.65,254.8,96.63Z" transform="translate(-9 -6)"/><path d="M246.94,194.84c.66-1.35,1.28-2.62,1.94-4l-4.41-2.2.84-1.88c3.65.92,6.48,4.06,10.44,4-.62,2.46-1.27,2.79-3.75,1.58l-2.28-1.09c-.31.55-.56,1-.78,1.4-.41.83-.81,1.68-1.25,2.61l4.8,2.42-1,2c-2.54-1.24-5-2.49-7.43-3.58a13.29,13.29,0,0,0-2.87-.6c.56-2.33,1.24-2.68,3.62-1.56C245.49,194.23,246.14,194.49,246.94,194.84Z" transform="translate(-9 -6)"/><path d="M102.29,40.15l1.83,4.6-2,.88c-1.14-2.74-2.2-5.42-3.39-8a9.8,9.8,0,0,0-1.74-2c2.12-.79,4.31-2.35,7.06-2.25a2.69,2.69,0,0,1,2.13,4A15,15,0,0,1,105,39l5.2,3.33c-1.16,1.12-2.54.84-3.88,0s-2.42-1.65-3.63-2.48Zm-.45-1,.6.35c.62-.78,1.58-1.51,1.75-2.38a2.81,2.81,0,0,0-1.16-2.3c-.66-.4-1.76-.09-3-.09Z" transform="translate(-9 -6)"/><path d="M76.86,240.1c-3.45-1.88-1.11-5.17-1.69-8.23L71.73,236,70,234.61c1.84-2.33,3.67-4.55,5.37-6.86a9.52,9.52,0,0,0,.86-2.54c1.71,1.55,4.25,2.65,5.47,5.2a2.59,2.59,0,0,1-2.32,3.68,19.43,19.43,0,0,1-2.15-.19Zm-1.33-8.83,0,.69c.94.16,2,.67,2.78.37a3.06,3.06,0,0,0,1.56-2.23c0-.73-.85-1.53-1.47-2.54Z" transform="translate(-9 -6)"/><path d="M192.29,247.91l5.35,3.31c-3.37,2.1-5.2-1.62-8.15-2.51l2,5-2.06.82c-1.15-2.71-2.22-5.38-3.42-8a10.67,10.67,0,0,0-1.85-2.08c2-.67,4.14-1.5,6.37-2.13a2.44,2.44,0,0,1,2.94,1.34,2.74,2.74,0,0,1-.52,3.36C192.81,247.26,192.65,247.47,192.29,247.91Zm-4.93-4.2c.78,1.86,1.33,3.16,2.1,5,.88-1,1.93-1.61,2.07-2.4a3.09,3.09,0,0,0-1.12-2.49C189.8,243.37,188.65,243.71,187.36,243.71Z" transform="translate(-9 -6)"/><path d="M237.35,220.55c-2.33-1.85-4.46-3.62-6.69-5.25a12.42,12.42,0,0,0-2.71-1.11c1.18-1.36,2.54-3.06,4.05-4.62a2.7,2.7,0,0,1,3.63-.5,2.65,2.65,0,0,1,1.1,3.34,5.13,5.13,0,0,0-.07.93l6.22.32c-1.95,3.44-5.22,1.14-8.35,1.67l4.17,3.44C238.3,219.31,237.9,219.84,237.35,220.55Zm-2.8-5.14c.27-1.31.82-2.35.57-3.17a2.78,2.78,0,0,0-2-1.59c-.82-.06-1.7.72-2.92,1.3Z" transform="translate(-9 -6)"/><path d="M257.48,169.62l6-2.38a7.27,7.27,0,0,1-1.19,2.38,9.43,9.43,0,0,1-2.79,1.37c-.9.37-1.83.64-2.74,1v.44l4.87,1.37-.54,2.08a55.08,55.08,0,0,0-5.66-1.34c-1.72-.24-3.48-1.86-5.64-.2.72-2.21,1.37-4.46,2.19-6.64a2.36,2.36,0,0,1,2.68-1.54,2.59,2.59,0,0,1,2.47,2.3A8.93,8.93,0,0,0,257.48,169.62Zm-1.68,2.59.61-.31c-.25-.93-.24-2.14-.83-2.69a3.05,3.05,0,0,0-2.66-.48c-.69.26-1,1.38-1.73,2.36Z" transform="translate(-9 -6)"/><path d="M204.35,52.81l-1.71-1.1c1.32-3.55,4.8-5.93,5.22-10.11,1.56,1.14,3.42,2.38,5.13,3.78a2.64,2.64,0,0,1,.76,3.44,2.7,2.7,0,0,1-3.05,1.47c-.28,0-.55,0-1.12-.07.09,2.06.18,4.05.26,6-1.45-.15-2.15-1-2.19-3.14,0-1.44,0-2.89,0-4.34l-.51-.1Zm5.94-9-3,4.59c1.38.14,2.5.59,3.24.23a3.05,3.05,0,0,0,1.37-2.33C211.91,45.52,211,44.79,210.29,43.77Z" transform="translate(-9 -6)"/><path d="M176.45,253.48l4.77,4.07c-3.66,1.6-4.89-2.4-7.63-3.66l1.19,5.2-2.09.62c-.75-2.89-1.42-5.68-2.23-8.42a9.52,9.52,0,0,0-1.44-2.21c2.13-.56,4.48-1.67,7.11-1.31a2.7,2.7,0,0,1,1.62,4.46C177.43,252.6,177,252.91,176.45,253.48Zm-3-.13c1.31-.11,2.48-.47,2.56-1.76a3.45,3.45,0,0,0-1-2.56c-.57-.45-1.72-.19-2.81-.26Z" transform="translate(-9 -6)"/><path d="M39.19,195c-2-3.4,1.48-5.19,2.58-8.18l-5.07,2.06-.86-2c1.86-.8,3.69-1.43,5.36-2.35s3.89-.6,4.61-3.21c.74,2.15,1.57,4.28,2.2,6.47a2.46,2.46,0,0,1-1.32,3.09,2.72,2.72,0,0,1-3.35-.55c-.2-.17-.4-.34-.8-.7Zm3.11-8.44-.32.58c.74.61,1.43,1.62,2.23,1.73a3.09,3.09,0,0,0,2.43-1.22c.42-.61.09-1.73.09-3Z" transform="translate(-9 -6)"/><path d="M47.68,89.56,54,88.71c-1.27,3.74-5,2.06-7.91,3.13l4.72,2.7-1,1.92c-1.81-.94-3.48-1.95-5.25-2.7-1.59-.67-2.91-2.59-5.34-1.51,1.14-1.9,2.22-3.86,3.46-5.7a2.75,2.75,0,0,1,5,1.93C47.67,88.7,47.68,88.92,47.68,89.56Zm-6,.07,3.9,2.05c1.23-2,1-3.2-.6-4S42.56,87.5,41.7,89.63Z" transform="translate(-9 -6)"/><path d="M100,253c-2.77-.88-2.95-1.3-1.6-4.08.31-.64.6-1.3,1-2.08l-4-2-2.42,4.83-2-.94c1.26-2.59,2.48-5.06,3.65-7.55.45-1,1.26-2-.17-3,1.3.5,3.08.42,2.84,2.25a15.37,15.37,0,0,1-1.5,3.63l4,2,2.24-4.49,1.75.89C103,246.25,99.56,249,100,253Z" transform="translate(-9 -6)"/><path d="M120.94,254.54l2.28,5.82c-4-.18-3.14-4.29-5-6.77l-1.42,5.14-2.11-.51c.47-2,1-3.85,1.34-5.75.27-1.7,1.83-3.43.18-5.61a68.47,68.47,0,0,1,7,2.5,3.1,3.1,0,0,1,1.07,2.62c-.09.78-1.06,1.5-1.73,2.13C122.26,254.37,121.71,254.35,120.94,254.54Zm-1.57-5.83c-.36,1.5-.7,2.91-1,4.3,2.18.69,3.3.22,3.68-1.39S121.65,249,119.37,248.71Z" transform="translate(-9 -6)"/><path d="M153.5,30.84,153,36.19,151.1,36c-.65-3.75,1.2-7.51-.31-11.28,1.83.21,4,.34,6.06.73a2.66,2.66,0,0,1,2.48,2.68A2.74,2.74,0,0,1,157.09,31c-.14.05-.27.16-.68.39,1,1.74,2.06,3.44,3.2,5.35C155.66,37,155.72,33,153.5,30.84Zm.2-.44a13.69,13.69,0,0,0,1.45,0,1.82,1.82,0,0,0,1.74-2.05A3.69,3.69,0,0,0,155.52,26c-.89-.61-1.84-.34-1.83,1.09C153.71,28.15,153.7,29.18,153.7,30.4Z" transform="translate(-9 -6)"/><path d="M251.35,88.35A6.3,6.3,0,0,1,245,94.24a5.5,5.5,0,0,1-5.4-5.59,6.21,6.21,0,0,1,6.31-6A5.47,5.47,0,0,1,251.35,88.35Zm-3.42-3.93c-3,.42-5.16,1.41-6.58,3.44a2.73,2.73,0,0,0,2.34,4.44,7.36,7.36,0,0,0,6-3.35,3.46,3.46,0,0,0,.21-2.87C249.57,85.29,248.45,84.84,247.93,84.42Z" transform="translate(-9 -6)"/><path d="M162.71,261.68c-3.31,0-5.64-2.44-5.68-6a5.52,5.52,0,0,1,5.63-5.89c3.13,0,5.61,2.69,5.64,6.19A5.45,5.45,0,0,1,162.71,261.68Zm3.47-5.25a23.65,23.65,0,0,0-1.57-4.42,3.2,3.2,0,0,0-2.59-1.24,3.27,3.27,0,0,0-2.26,1.77,7.54,7.54,0,0,0,1,7.12,2.7,2.7,0,0,0,4.87-.66A18.51,18.51,0,0,0,166.18,256.43Z" transform="translate(-9 -6)"/><path d="M72.65,64a6.38,6.38,0,0,1-6.09-6.24A5.59,5.59,0,0,1,72,52.24a6.5,6.5,0,0,1,6.2,6.34A5.63,5.63,0,0,1,72.65,64ZM70.84,53.58a2.69,2.69,0,0,0-2.71,3.34,8.44,8.44,0,0,0,4.69,5.52,2.71,2.71,0,0,0,3.87-2.12C77,57.76,73.4,53.6,70.84,53.58Z" transform="translate(-9 -6)"/><path d="M83.55,42.89l6.26,9.19-.27.58L78.69,49.78l4.48,6.89-.44.28c-3-2.25-3.47-6.86-7.31-8.39.69-1.07,1.73-1.47,3.46-1,2.62.68,5.24,1.39,8.21,2.19l-4.26-6.41Z" transform="translate(-9 -6)"/><path d="M260,164.13c.65-.17,1.19-.28,1.7-.45a3.22,3.22,0,0,0,2-3.75,1.54,1.54,0,0,0-2.63-.73,27.58,27.58,0,0,0-2.56,2.83c-1.42,1.64-2.75,2.08-4.2,1.38s-1.85-2.23-1.44-4.23c.61-3,1.77-3.69,4.72-2.61-.82.18-1.43.14-1.79.42a6,6,0,0,0-2,2.15,2.49,2.49,0,0,0,.76,2.2c.34.28,1.57-.13,2.09-.59a33,33,0,0,0,2.6-3,2.9,2.9,0,0,1,3.24-1.12,2.86,2.86,0,0,1,2.08,2.89,9.4,9.4,0,0,1-.5,3.25C263.3,164.79,262.27,165.11,260,164.13Z" transform="translate(-9 -6)"/><path d="M56.48,209.3c.37-.57.65-1,.94-1.44a2.5,2.5,0,0,0-.28-3.34,2.27,2.27,0,0,0-1.81-.69,2.13,2.13,0,0,0-1.15,1.57,32.67,32.67,0,0,0,.13,4.31,2.85,2.85,0,0,1-1.77,3.08,3,3,0,0,1-3.46-.91A8.83,8.83,0,0,1,47.7,210c-1.25-2.34-.92-3.28,1.92-4.81a8.41,8.41,0,0,0-.92,1.47,5.16,5.16,0,0,0-.48,2.31c.24,1.2.89,2.47,2.39,2.3s1.49-1.54,1.48-2.73-.1-2.43-.08-3.65a2.44,2.44,0,0,1,1.9-2.6,4.21,4.21,0,0,1,2.86.61,5.86,5.86,0,0,1,1.8,2.51C59.46,207.47,58.91,208.45,56.48,209.3Z" transform="translate(-9 -6)"/><path d="M180.72,33.88c0-2-.22-3.62-2.07-4.1a2.54,2.54,0,0,0-2.18.5,2.42,2.42,0,0,0,.24,2.17,28.54,28.54,0,0,0,2.67,3,2.93,2.93,0,0,1,.6,3.66,3.09,3.09,0,0,1-3.45,1.43,8.22,8.22,0,0,1-2.23-.62c-2.24-1-2.57-2-1.36-4.61.09.7.14,1.12.21,1.55A3,3,0,0,0,176,39.57a2.2,2.2,0,0,0,1.7-.68,2,2,0,0,0,0-1.81,25.38,25.38,0,0,0-2.57-3c-1.12-1.2-1.62-2.52-.79-4.07.64-1.22,2.18-1.63,4-1.17C181.46,29.6,182.3,31.14,180.72,33.88Z" transform="translate(-9 -6)"/><path d="M33.22,124.18c-.87.23-1.41.33-1.93.51a2.62,2.62,0,0,0-1.89,2.81,2.12,2.12,0,0,0,1,1.55,2,2,0,0,0,1.75-.33,31.31,31.31,0,0,0,2.6-3c1-1.18,2.08-2,3.74-1.39s2,2,1.89,3.53a9.36,9.36,0,0,1-.57,2.73c-.77,1.9-1.78,2.18-4,1.16,1.81-.36,3.53-.8,3.63-2.88a3,3,0,0,0-.85-2.23c-.38-.28-1.59.13-2.12.58a24.66,24.66,0,0,0-2.52,2.86,3.09,3.09,0,0,1-3.72,1.07c-1.39-.56-1.71-1.81-1.64-3.17a8.32,8.32,0,0,1,.35-2.11C29.64,123.65,30.54,123.26,33.22,124.18Z" transform="translate(-9 -6)"/><path d="M64.33,217.3c.93-2,.65-2.77-1.94-5l-3.06,2.51c.5.63,1,1.21,1.43,1.81s.83,1.14,1.25,1.71l-.46.36-2.94-3.26-3.46,2.88c1.45,1.58,2.19,3.92,5.18,3.09-1.57,1.36-2.53,1.37-3.63.11s-2.34-2.81-3.64-4.38c1.49-1.25,3-2.39,4.39-3.74s3.65-1.74,3.15-4.78c1.9,2.29,3.61,4.15,5.09,6.19C66.7,216.19,65.37,216.77,64.33,217.3Z" transform="translate(-9 -6)"/><path d="M126.51,257c.35,1.95.86,3.7,3.1,3.75.68,0,1.77-.28,1.95-.73a2.57,2.57,0,0,0-.42-2.21,21.71,21.71,0,0,0-2.88-2.5,3.11,3.11,0,0,1-1.1-3.85c.64-1.48,2.05-1.72,3.51-1.63a7.32,7.32,0,0,1,1.31.22c2.43.62,3,1.71,2.11,4.52-.19-.76-.18-1.29-.44-1.61a6.46,6.46,0,0,0-2.08-2.11,2.63,2.63,0,0,0-2.28.64c-.8.78-.15,1.64.56,2.26,1.08,1,2.19,1.88,3.28,2.82a2.44,2.44,0,0,1,.75,3.14,4.37,4.37,0,0,1-2.49,1.83,6.91,6.91,0,0,1-3.41-.36C125.92,260.54,125.52,259.35,126.51,257Z" transform="translate(-9 -6)"/><path d="M212.22,234.19c-.78-.54-1.16-.83-1.56-1.09a2.55,2.55,0,0,0-3.36.14c-.47.42-1,1.33-.83,1.77a2.4,2.4,0,0,0,1.67,1.27,22.25,22.25,0,0,0,3.64-.14c1.5-.06,2.92.09,3.64,1.7.6,1.32.16,2.77-1.27,3.95a7.89,7.89,0,0,1-1.66,1.08c-2.24,1.1-3.3.67-4.48-2,.57.39.9.59,1.2.83a2.75,2.75,0,0,0,3.79-.08,2.47,2.47,0,0,0,.89-1.91,2.37,2.37,0,0,0-1.67-1.27,23.43,23.43,0,0,0-3.65,0c-2.18,0-3.23-.57-3.72-2.08-.42-1.32.31-2.76,2-3.85C209.28,230.9,210.8,231.26,212.22,234.19Z" transform="translate(-9 -6)"/><path d="M203,238.9c-2.17-2.28-3.62-.25-5.47.54l2,3.62,3.94-1.95.34.6-3.84,2.14,2.17,4c1.83-1.12,4.16-1.44,4.09-4.32,1,1.79.8,2.59-.72,3.43s-3.2,1.74-4.93,2.68c-1-1.75-1.78-3.5-2.84-5.09s-1-3.86-3.89-4.05c2.48-1.35,4.67-2.62,6.92-3.73C201.8,236.26,202.38,236.83,203,238.9Z" transform="translate(-9 -6)"/><path d="M251.82,177.17c-2.21.32-2.71.92-3.39,4.32l3.73,1.35,1.62-4.07.55.16c-.4,1.34-.8,2.68-1.25,4.21l4.06,1.5c1.6-2.79,1.68-3.8.49-5.86,1.77.55,2.21,1.3,1.63,3s-1.24,3.42-1.87,5.13c-3.78-.35-6.89-3.41-11-2.63.8-2.18,1.53-4.67,2.62-7C249.75,175.66,250.88,176.84,251.82,177.17Z" transform="translate(-9 -6)"/><path d="M185.5,31.28c2,.79,4.36,1.62,6.63,2.6,1.18.5,1.16,1.22,0,3.08.31-3.16-2.23-2.86-4-3.84L186.6,37l4.05,1.66-.13.45c-1.43.13-2.61-.93-4.24-1.21-.51,1.31-1.05,2.66-1.66,4.19,2,.64,3.79,2.32,5.92.27-.43,1.76-1.35,2.35-2.82,1.81-1.76-.64-3.5-1.36-5.46-2.13,1.05-2.72,2.12-5.37,3.06-8.06A11.31,11.31,0,0,0,185.5,31.28Z" transform="translate(-9 -6)"/><path d="M211.35,229.8c2.27-1.86,4.17-3.63,6.29-5.08,1.29-.88,1.83.43,2.36,1.5-2.45-1.67-3.47.63-5.14,1.69l2.58,3.23,3.57-2.67.36.47-3.29,2.94L221,235.4c1.43-1.51,3.85-2.15,3.1-5.07,1.28,1.36,1.3,2.38.13,3.4-1.41,1.23-2.89,2.4-4.46,3.7-1.28-1.52-2.43-3.09-3.78-4.45S214.26,229.39,211.35,229.8Z" transform="translate(-9 -6)"/><path d="M51.79,200.26c2.15-2.15-.12-3.55-.71-5.47l-3.7,2,1.95,4-.54.27c-.74-1.23-1.48-2.46-2.27-3.75l-3.91,2.14c1,1.94,1.49,4.2,4.33,4.21-2.43.81-2.63.73-3.73-1.28-.8-1.45-1.59-2.9-2.35-4.29,2.83-2.6,7.1-2.92,9.29-6.47,1.09,2,2.39,4.17,3.45,6.45C54.29,199.51,52.92,199.85,51.79,200.26Z" transform="translate(-9 -6)"/><path d="M113.35,249.17c-.35-2.46-.94-2.94-4.24-3.55l-1.35,3.7c.75.3,1.45.57,2.14.86s1.27.57,1.9.85l-.23.54-4.09-1.37-1.58,4.35c2.08.43,3.88,2.35,6.16-.28-.89,2.39-1.48,2.72-3.19,2.14s-3.43-1.21-5.14-1.82c.45-3.74,3.18-6.87,2.82-10.92a71.07,71.07,0,0,1,6.86,2.54C114.78,246.86,113.91,248,113.35,249.17Z" transform="translate(-9 -6)"/><path d="M165.84,27.45l-.66,3.83,4.2.86-.08.62L165,32.18l-.81,4.39c2.11.45,4.13,1.59,5.89-.81-.19,2-.88,2.57-2.57,2.29s-3.59-.62-5.44-.94c-.32-3.77,2.19-7.35.75-11.28,2.3.43,4.91.74,7.43,1.44,1.4.39.58,1.67.46,2.59C169.82,27.75,168.78,27.21,165.84,27.45Z" transform="translate(-9 -6)"/><path d="M227.62,230.62,223,218.73c1,.25,1.43.31,1.85.47,2.43.94,4.83,2,7.27,2.84a27.86,27.86,0,0,0,3.19.76,2.75,2.75,0,0,1-3.78,1.41c-2.22-.86-2.48,1.33-3.66,2.07-1,.61-.42,1.43-.16,2.2s.39,1.31.58,2Zm-.84-4.46,2.59-2.74-4.27-1.65Z" transform="translate(-9 -6)"/><path d="M67.67,232.55a2.71,2.71,0,0,1-1.4-3.65,2.07,2.07,0,0,0-.55-2.43c-1.38-1.61-2.75-2.42-4.75-1.12-.22.14-.61,0-.92,0L60,224.9l3.29-1.32c2.31-.92,4.62-1.86,6.94-2.76a4.56,4.56,0,0,1,1.24-.1,4.34,4.34,0,0,1-.1,1.21c-.88,2.33-1.85,4.63-2.7,7C68.2,230.09,68,231.36,67.67,232.55ZM64.58,224l2.52,2.57,1.64-4.19Z" transform="translate(-9 -6)"/><path d="M200.9,50.39c-1.82-.5-2.63-1.4-2.55-3.22a2,2,0,0,0-1.18-2.05c-1.77-1-3.35-1.62-4.9.3-.18.23-.64.22-1.17,0,.42-.37.83-.77,1.28-1.13,2.41-2,4.82-3.91,7.25-5.83a4.66,4.66,0,0,1,1.26-.49,5.71,5.71,0,0,1,.21,1.2c-.18,2.82-.45,5.63-.59,8.45A15.19,15.19,0,0,0,200.9,50.39Zm-2.43-5.45c.1-1.64.18-3,.29-4.7l-3.62,2.95Z" transform="translate(-9 -6)"/><path d="M64.92,62.74c-.84-.26-1.24-.37-1.63-.52a3,3,0,0,0-3.58,1c-.94,1.09-1.4,2.48-.48,3.66a15.11,15.11,0,0,0,4,3.82c2.49,1.45,5.08-.28,5.19-3.18,0-.59,0-1.18,0-1.76l.58-.08a12.4,12.4,0,0,1,.08,2.78A6,6,0,0,1,63.38,73a6.73,6.73,0,0,1-5.92-5.65,6.09,6.09,0,0,1,3.87-6.17C62.59,60.71,63.45,61,64.92,62.74Z" transform="translate(-9 -6)"/><path d="M112.69,29.19c3.57,3.11,5.32,7.15,8.82,9.47-1.48.91-2.82.86-4-.51a2.05,2.05,0,0,0-2.42-.65c-2,.4-3.39,1.15-3.19,3.5,0,.29-.3.61-.46.91l-.45-.12C111.55,37.77,112.09,33.74,112.69,29.19Zm.37,3.57-.58,4.71,3.55-1Z" transform="translate(-9 -6)"/><path d="M258.88,104.74c1.15,2.14.9,2.79-1.69,3.58-1.53.48-3.08.89-4.58,1.46-1.78.67-2.52,1.88-2.18,3.24a2.8,2.8,0,0,0,3.59,2.34c2-.36,3.94-1.06,5.91-1.6.54-.15,1.09-.27,1.63-.4l.19.42a3.18,3.18,0,0,1-.78.57c-2.06.63-4.11,1.32-6.21,1.82-2.63.62-4.27-.39-5.09-3s-.11-4.53,2.37-5.57c1.42-.6,3-.89,4.4-1.46A17.92,17.92,0,0,0,258.88,104.74Z" transform="translate(-9 -6)"/><path d="M89,245a12.41,12.41,0,0,1-2.16.65,6.15,6.15,0,0,1-5.76-3.5,6.23,6.23,0,0,1,1.81-6.8,5.85,5.85,0,0,1,8.86,1.07c1,1.42.85,2.35-.64,3.88,0-.5,0-.86.12-1.2a3.13,3.13,0,0,0-1.67-3.63,2.93,2.93,0,0,0-4,.45,18.75,18.75,0,0,0-2.66,4,3.16,3.16,0,0,0,.59,3.85,3.78,3.78,0,0,0,4,1c.43-.13.87-.21,1.31-.31Z" transform="translate(-9 -6)"/><path d="M243.23,199.5l-1.76-.2a3.16,3.16,0,0,0-3.28,1.77,3,3,0,0,0,.19,3.58A8.26,8.26,0,0,0,244,208c2.27.28,4.17-2.16,3.66-4.6a13.68,13.68,0,0,0-.47-1.5l.5-.23a9,9,0,0,1,.69,1.65,6.08,6.08,0,0,1-3,6,6,6,0,0,1-6.88-1.27,5.51,5.51,0,0,1-1.4-6.51,9,9,0,0,1,2.45-2.84C240.71,197.76,241.94,198.2,243.23,199.5Z" transform="translate(-9 -6)"/><path d="M130.66,29.61c-.45-.6-.7-.92-.94-1.26A3.11,3.11,0,0,0,126.23,27c-1.43.32-2.58,1.22-2.56,2.68a14.7,14.7,0,0,0,.89,5.46c1.16,2.68,4.46,2.76,6.23.39.33-.44.63-.9.94-1.35l.5.29a11.41,11.41,0,0,1-1.16,1.95,6.17,6.17,0,0,1-7.23.9,6.55,6.55,0,0,1-2.1-7.88,5.92,5.92,0,0,1,7-3.13C130.26,26.75,130.78,27.75,130.66,29.61Z" transform="translate(-9 -6)"/><path d="M220.42,62.14a13.82,13.82,0,0,1-3.07.1,5.77,5.77,0,0,1-4.46-5.68,6.48,6.48,0,0,1,5.2-5.9,5.94,5.94,0,0,1,6.45,3.59c.46,1.25.15,2.13-1.37,3.43.18-.69.32-1.14.42-1.59a3.15,3.15,0,0,0-1.32-3.49,2.93,2.93,0,0,0-3.7-.21,17.64,17.64,0,0,0-3.39,3.77,3.14,3.14,0,0,0,.1,3.89,4,4,0,0,0,4,1.52l1.05-.15Z" transform="translate(-9 -6)"/><path d="M35.87,99.21c4.6-.68,8.8.33,12.76-1A2.55,2.55,0,0,1,46,101c-1.22,0-1.65.52-2.15,1.52-.92,1.84-1.16,3.38.76,4.69a1.68,1.68,0,0,1,.4.69c0,.07-.06.2-.21.61C41.7,105.5,38.83,102.57,35.87,99.21Zm7.6,2H39.09l3.06,3.27Z" transform="translate(-9 -6)"/><path d="M241,71.28c1.54,2.16,2.8,3.9,4,5.68,1.06,1.55.78,2.17-1.47,3,2-2.28-.06-3.43-1-5l-3.42,2.44,2,3.08-.44.34L238.36,78l-4.31,3-1.3-1.78c1.61-1.14,3.25-2.15,4.7-3.39S241.18,74.28,241,71.28Z" transform="translate(-9 -6)"/><path d="M32,175.05l-.63-2.37c4.89-.34,7.2-3.91,9.67-7.85a9,9,0,0,1,.27,3,8.59,8.59,0,0,1-1.63,2.63c-.59.79-1.29,1.5-2,2.33,2,1.05,4.36,1.09,6,2.64C39.76,174.72,36.06,172.56,32,175.05Z" transform="translate(-9 -6)"/><path d="M146.87,251.41l5.63-.31c2.2-.13,2.57.27,2.34,3-.93-2.85-2.88-2.14-4.76-2.08v4.25h3.71l0,.51-3.59.39v5.17l-2,.2C147.5,258.83,148.72,254.93,146.87,251.41Z" transform="translate(-9 -6)"/><path d="M96.86,48.25l-2,1-4.9-9c-1.81.46-2.49,1.5-2,3.41-1.71-1.92-1.63-2.56.27-3.59s3.52-1.88,5.28-2.8a10,10,0,0,1,1.18-.47l.24.47L92,39.1Z" transform="translate(-9 -6)"/><path d="M47.69,83.05c-2.35-.86-2.57-1.43-1.43-3.18s2.26-3.42,3.41-5.12a8.06,8.06,0,0,1,.79-.87l.4.28-1.77,3.07L57.7,83l-1.25,1.87-8.52-5.66C46.35,80.81,46.31,81.18,47.69,83.05Z" transform="translate(-9 -6)"/><path d="M136.78,26.08c-1.8-.19-2.9.32-3.16,2.3-.74-2.47-.43-2.91,1.77-3.07s4.67-.34,7-.51l.1.53a6.24,6.24,0,0,1-1.5.3c-1.59-.1-2.11.44-1.89,2.11.36,2.74.45,5.51.66,8.47l-2.17.13Z" transform="translate(-9 -6)"/><path d="M260.07,141.1a2.57,2.57,0,0,1,0,5.13,2.57,2.57,0,1,1,0-5.13Z" transform="translate(-9 -6)"/><path d="M35.71,143.61a2.5,2.5,0,0,1-2.42,2.62,2.57,2.57,0,1,1,2.42-2.62Z" transform="translate(-9 -6)"/><path d="M136.27,264.75l1.45-1.74c-.06-.24-.07-.35-.11-.45-.24-.58-.49-1.15-.73-1.72l1.17-.41a5.29,5.29,0,0,1,.59,1.86A2.71,2.71,0,0,1,136.27,264.75Z" transform="translate(-9 -6)"/><path d="M142.37,173.79v21.64h-9.61v-38c0-.5,0-1,0-1.49-.15-4.61-1.13-5.73-5.67-6.42V147.6a2.56,2.56,0,0,1,.55-.16c7.55.06,15.1-.06,22.64.26a31.75,31.75,0,0,1,8.87,1.94c5.54,1.92,7.87,5.79,7.62,11.65-.22,5.28-3.23,8.41-7.81,10.36-1.21.52-2.47.92-3.87,1.43.89,1.5,1.71,2.92,2.57,4.32,2.19,3.6,4.32,7.24,6.63,10.76a12.19,12.19,0,0,0,7.2,5.58c.53,1.47,0,2-1.52,2.3-5.86,1.07-10.65-.77-14-5.53s-6.47-9.95-9.5-15C145.46,173.81,144.4,173.15,142.37,173.79Zm0-3.35c6,1,10.87-.67,12.89-4.26s1.56-9.88-1-12.72-7.78-4-11.88-2.33Z" transform="translate(-9 -6)"/><path d="M87.69,124.74c1.57-.45,2.24,0,2.34,1.39a14.18,14.18,0,0,0,.58,2.42c2.47,9.45,10.45,10.94,17.09,9.54,2.59-.55,4.61-2,5.32-4.69a6.77,6.77,0,0,0-2.19-7.4c-2.76-2.22-5.76-4.12-8.72-6.08s-6.1-3.63-9-5.72a12.32,12.32,0,0,1-5-13.5c1.2-5.3,5.23-7.83,10.16-8.9A26.49,26.49,0,0,1,114.13,93a20.92,20.92,0,0,1,4.61,2.88,5.09,5.09,0,0,1,1.84,4.28c0,2.66,0,5.32,0,8-1.34.45-2,.37-2.4-1.2a29,29,0,0,0-3-7.52c-2.86-4.66-10.23-6.44-15.13-4a6.68,6.68,0,0,0-1.77,10.79,39.22,39.22,0,0,0,6,4.37c3,1.93,6.2,3.68,9.28,5.55,1.28.78,2.47,1.7,3.7,2.54,8,5.5,6.52,18-3.15,21.46a28.15,28.15,0,0,1-21.11-.58c-3.59-1.52-5.9-4-5.44-8.36A61,61,0,0,0,87.69,124.74Z" transform="translate(-9 -6)"/><path d="M166.55,128.67l2.11,1.65c-2.67,4.71-6.12,8.48-11.26,10.2a28.27,28.27,0,0,1-19.89-.33,20.73,20.73,0,0,1-12.37-13.35,29.13,29.13,0,0,1,.72-21c4.38-10.44,14.12-16,25.41-14.7a24.86,24.86,0,0,1,11.28,3.63,8.45,8.45,0,0,1,4.08,7.21c.05,1.93,0,3.86,0,5.91h-1.82c-.7-1.87-1.26-3.74-2.07-5.48-2.59-5.58-7.1-8.21-13.18-8.09s-11,2.68-13.3,8.51c-3.41,8.83-3.72,18,0,26.78,4,9.51,15.25,12.23,23.76,5.82C162.42,133.61,164.29,131,166.55,128.67Z" transform="translate(-9 -6)"/><path d="M184.2,151v18.27H200v3.38H184.11v22.84h-9.46v-2q0-18,0-36a23,23,0,0,0-.31-3.8c-.43-2.69-1.6-3.74-4.29-4l-1.19-.12v-2.13h1.8c9.38,0,18.77,0,28.15,0a13.51,13.51,0,0,1,3,.32,4.05,4.05,0,0,1,3.46,3.4c.34,2.67.33,5.39.47,8.18h-2.21c-.12-.72-.23-1.48-.37-2.22-.68-3.63-2.63-5.82-6.26-6.08C192.71,150.75,188.54,151,184.2,151Z" transform="translate(-9 -6)"/></svg>