<?xml version="1.0" encoding="utf-8"?>
<!-- Generator: Adobe Illustrator 25.4.1, SVG Export Plug-In . SVG Version: 6.00 Build 0)  -->
<svg version="1.1" id="Layer_1" xmlns="http://www.w3.org/2000/svg" xmlns:xlink="http://www.w3.org/1999/xlink" x="0px" y="0px"
	 viewBox="0 0 1229 300" style="enable-background:new 0 0 1229 300;" xml:space="preserve">
<style type="text/css">
	.st0{fill:#FFFFFF;}
</style>
<g>
	<path class="st0" d="M1209.67,244c-0.54,0.08-1.08,0.23-1.62,0.23c-4.5,0.02-9,0.01-13.5,0.01c-0.49,0-0.97-0.06-1.67-0.1
		c0-0.8,0-1.51,0-2.21c0-11.88,0.08-23.77-0.05-35.65c-0.04-3.19-0.37-6.46-1.21-9.53c-1.79-6.55-6.71-9.22-13.2-7.21
		c-2.2,0.68-4.16,2.21-6.14,3.48c-0.35,0.23-0.45,1.14-0.37,1.7c0.5,3.55,1.51,7.08,1.57,10.63c0.2,12.21,0.08,24.43,0.08,36.65
		c0,0.66,0,1.32,0,2.11c-5.55,0-10.95,0-16.56,0c-0.04-0.67-0.12-1.36-0.12-2.05c-0.01-11.66,0.06-23.33-0.05-34.99
		c-0.03-3.14-0.31-6.34-0.95-9.41c-0.83-3.97-2.86-7.24-7.12-8.44c-3.62-1.01-9.76,1.3-11.72,4.41c-0.23,0.36-0.22,0.92-0.18,1.38
		c0.21,2.59,0.65,5.17,0.66,7.76c0.07,13.11,0.03,26.21,0.03,39.32c0,0.65,0,1.3,0,2.04c-5.67,0-11.14,0-16.82,0
		c0-0.74,0-1.38,0-2.03c0-14.16,0.03-28.32-0.03-42.49c-0.01-2.09-0.26-4.22-0.72-6.26c-0.85-3.79-2.89-5.39-6.78-5.68
		c-0.77-0.06-1.54-0.01-2.45-0.01c0-1.31,0-2.5,0-3.78c0.35-0.05,0.72-0.14,1.09-0.14c4.11-0.01,8.22-0.09,12.33,0.02
		c4.12,0.1,7.95,1.03,10.36,5.07c5.07-4.43,10.81-6.56,17.37-6.38c6.56,0.18,12.2,2.54,16.91,7.21c3.11-3.09,6.61-5.48,10.92-6.43
		c5.29-1.16,10.59-1.14,15.82,0.29c7.91,2.16,11.98,7.74,13.42,15.53c0.26,1.41,0.45,2.84,0.68,4.26
		C1209.67,216.89,1209.67,230.44,1209.67,244z"/>
	<path class="st0" d="M9,138.67c0.32-3.47,0.58-6.95,0.97-10.42c2.56-23.01,10.39-44.1,23.74-62.99
		c21.21-30.01,49.9-48.85,85.89-56.46c7.61-1.61,15.34-2.44,23.13-2.58C143.15,6.2,143.57,6.07,144,6c1.78,0,3.56,0,5.33,0
		c2.86,0.21,5.73,0.4,8.59,0.64c27.11,2.24,51.49,11.66,72.88,28.41c27.46,21.5,44.99,49.43,50.97,83.81
		c7.83,45.02-3.85,84.88-34.79,118.6c-21.32,23.24-48,37.07-79.14,42.07c-5.79,0.93-11.7,1.08-17.56,1.6
		c-0.32,0.03-0.63,0.14-0.95,0.21c-1.78,0-3.56,0-5.33,0c-2.92-0.21-5.84-0.39-8.76-0.64c-28.3-2.39-53.54-12.53-75.48-30.5
		c-24.3-19.9-40.03-45.27-47.23-75.86c-1.89-8.01-2.94-16.15-3.3-24.37c-0.02-0.43-0.14-0.86-0.22-1.29C9,145.33,9,142,9,138.67z
		 M10.09,143.57c-0.06,74.42,60.04,136.19,135.75,136.6c76.15,0.41,136.18-61.01,137.27-134.4c1.12-75.35-59.46-138.2-135.74-138.6
		C71.05,6.76,10.13,68.7,10.09,143.57z"/>
	<path class="st0" d="M1041.13,187.75c0.53,1.07,0.99,2.01,1.53,3.09c-2.16,1.65-4.3,3.3-6.48,4.97c-0.26-0.22-0.51-0.36-0.67-0.57
		c-3.64-4.64-8.43-5.05-13.69-3.73c-0.8,0.2-1.6,0.48-2.35,0.82c-3.55,1.61-3.76,2.01-3.35,5.88c0.06,0.61,0.13,1.22,0.13,1.83
		c0.01,14.22,0.01,28.44,0,42.66c0,0.43-0.05,0.87-0.09,1.42c-5.47,0-10.88,0-16.48,0c-0.04-0.7-0.11-1.39-0.11-2.09
		c-0.01-13.5,0.02-27-0.03-40.5c-0.01-2.38-0.18-4.78-0.56-7.12c-0.78-4.75-3.14-6.66-7.97-6.77c-0.49-0.01-0.98,0-1.54,0
		c0-1.34,0-2.52,0-4.04c5.74,0.17,11.39,0.18,17.02,0.57c2.97,0.21,4.23,1.35,6.42,4.12c8.07-5.93,16.6-8.1,26.07-3.06
		c0.08-0.39,0.17-0.85,0.28-1.38c0.48-0.03,0.91-0.1,1.34-0.09c5.61,0.06,11.22-0.05,16.81,0.26c4.4,0.24,6.93,2.56,7.83,6.88
		c0.55,2.64,0.81,5.39,0.84,8.09c0.11,7.55-0.08,15.11,0.09,22.66c0.08,3.47,0.41,7,1.19,10.38c2.06,8.91,11.63,9.32,16.28,5.35
		c1.74-1.49,3.13-3.42,4.54-5.25c0.41-0.54,0.46-1.46,0.47-2.2c0.03-14.67,0.02-29.33,0.02-44c0-0.65,0-1.31,0-2.07
		c5.58,0,11,0,16.56,0c0,20.07,0,40.13,0,60.37c-3.48,0-6.91,0.03-10.33-0.04c-0.38-0.01-0.82-0.48-1.12-0.84
		c-1.09-1.33-2.16-2.68-3.17-4.08c-0.67-0.93-1.15-0.85-1.97-0.11c-8.14,7.33-20.64,8.62-30.19,3.14
		c-5.03-2.88-7.38-7.53-8.35-12.99c-0.41-2.34-0.6-4.74-0.63-7.12c-0.09-7.94-0.02-15.89-0.13-23.83c-0.02-1.81-0.36-3.66-0.84-5.4
		C1047.47,189.35,1045.2,187.78,1041.13,187.75z"/>
	<path class="st0" d="M458.89,69.62c7.59-7.78,16.86-8.45,26.6-6.13c7.81,1.85,11.99,7.41,13.43,15.09
		c0.46,2.44,0.67,4.96,0.68,7.44c0.07,12.05,0.03,24.11,0.03,36.16c0,0.61,0,1.21,0,1.94c-5.56,0-11.03,0-16.66,0
		c-0.03-0.74-0.09-1.44-0.09-2.14c-0.01-12.28,0.04-24.55-0.04-36.83c-0.01-2.37-0.28-4.78-0.78-7.09c-2-9.27-9.03-11.09-16.61-7.47
		c-0.5,0.24-0.97,0.54-1.43,0.85c-2.43,1.67-2.31,1.86-1.67,4.7c0.65,2.9,1.19,5.9,1.22,8.86c0.13,12.72,0.06,25.44,0.05,38.16
		c0,0.27-0.04,0.55-0.08,1.08c-0.87,0-1.74,0-2.6,0c-4.11,0-8.22-0.06-12.33,0.03c-1.41,0.03-1.77-0.41-1.76-1.78
		c0.05-11.89,0.08-23.77-0.01-35.66c-0.02-3.03-0.47-6.07-0.85-9.09c-0.13-1.02-0.55-2.04-0.98-2.99c-2.37-5.29-7.37-7.22-12.69-4.9
		c-0.91,0.4-1.77,0.93-2.62,1.44c-2.09,1.25-3.57,2.67-2.45,5.5c0.49,1.23,0.37,2.74,0.37,4.12c0.02,13.94,0.01,27.88,0.01,41.83
		c0,0.43-0.05,0.87-0.08,1.4c-5.53,0-10.99,0-16.67,0c0-0.8,0-1.51,0-2.21c0-13.55,0.05-27.11-0.04-40.66
		c-0.02-2.81-0.3-5.67-0.93-8.4c-0.8-3.49-2.99-5-6.6-5.22c-0.82-0.05-1.64-0.1-2.53-0.15c0-1.25,0-2.4,0-3.56
		c0.07-0.06,0.15-0.18,0.24-0.18c4.78-0.01,9.56-0.13,14.32,0.04c3.73,0.14,7.11,1.3,9.22,5c5.02-4.35,10.73-6.54,17.3-6.38
		C448.44,62.57,454.06,64.92,458.89,69.62z"/>
	<path class="st0" d="M382.46,204.58c4.05,6.74,8.12,13.48,12.15,20.25c2.42,4.06,4.91,8.06,8.38,11.35
		c2.16,2.05,4.55,3.8,7.48,4.48c1.45,0.34,1.26,1.22,1.32,2.21c0.06,1.06-0.27,1.59-1.38,1.84c-9.74,2.21-18.34,0.27-24.8-7.62
		c-3.82-4.65-7.05-9.81-10.32-14.88c-3.18-4.94-6.13-10.05-9.06-15.14c-0.77-1.34-1.64-1.92-3.15-1.74
		c-0.92,0.11-1.87,0.02-3.06,0.02c0,6.57,0,12.99,0,19.4c0,6.43,0,12.86,0,19.38c-5.65,0-11.11,0-16.8,0c0-0.8,0-1.51,0-2.22
		c0-21.83,0.02-43.67-0.02-65.5c0-2.15-0.19-4.33-0.56-6.45c-0.83-4.72-3.2-6.63-8.02-6.73c-0.49-0.01-0.98-0.05-1.59-0.08
		c0-1.27,0-2.45,0-3.85c0.63,0,1.23,0,1.82,0c11.94,0.02,23.89-0.05,35.83,0.07c7.52,0.08,14.77,1.63,21.64,4.73
		c7.58,3.43,10.49,9.73,10.81,17.66c0.38,9.35-4.08,15.64-12.26,19.52C388.22,202.56,385.4,203.45,382.46,204.58z M360.12,200.23
		c4.72-0.17,9.36,0.57,13.83-0.93c5.88-1.97,9.8-5.83,10.71-12.14c0.37-2.56,0.46-5.21,0.29-7.79c-0.51-7.43-5.31-12.83-12.57-14.44
		c-4.11-0.91-8.14-0.33-12.26,0.53C360.12,176.98,360.12,188.45,360.12,200.23z"/>
	<path class="st0" d="M787.02,244.16c-5.65,0-11.07,0-16.71,0c0-0.78,0-1.49,0-2.19c0-21.94,0.02-43.87-0.03-65.81
		c-0.01-2.26-0.25-4.56-0.7-6.77c-0.85-4.18-3.21-6.01-7.48-6.15c-0.65-0.02-1.3,0-2.04,0c0-1.35,0-2.5,0-3.76
		c0.33-0.05,0.7-0.16,1.06-0.16c4.94,0,9.89-0.05,14.83,0.05c7.05,0.14,10.16,2.98,10.65,10.04c0.35,5.14,0.29,10.31,0.41,15.47
		c0.01,0.65,0,1.31,0,2.29c0.73-0.42,1.25-0.68,1.73-1c8.99-5.94,22.05-4.17,29.52,1.38c4.52,3.36,6.36,8.12,7.01,13.46
		c0.27,2.2,0.33,4.43,0.34,6.64c0.03,11.44,0.01,22.88,0.01,34.32c0,0.66,0,1.33,0,2.13c-5.54,0-11,0-16.64,0
		c-0.04-0.7-0.11-1.4-0.11-2.09c-0.01-11.83,0.05-23.66-0.04-35.49c-0.02-2.64-0.29-5.34-0.87-7.91c-2-8.85-9.51-12.09-17.45-7.67
		c-0.1,0.05-0.2,0.1-0.3,0.15c-2.37,1.12-3.32,2.76-3.29,5.59c0.17,15.1,0.08,30.21,0.08,45.32
		C787.02,242.66,787.02,243.32,787.02,244.16z"/>
	<path class="st0" d="M394.97,67.37c-1.23,0-2.27,0-3.42,0c-0.53-2.19-0.97-4.41-1.6-6.56c-1.56-5.35-3.71-10.47-8.45-13.78
		c-7.01-4.88-14.74-5.9-22.57-2.43c-7.4,3.28-9.02,13.38-3.18,19.03c2.49,2.41,5.43,4.41,8.38,6.25c7.39,4.61,14.9,9.01,22.34,13.54
		c1.23,0.75,2.3,1.74,3.47,2.58c13.27,9.57,10.62,30.39-4.94,36.96c-6.48,2.74-13.26,3.51-20.19,3.37
		c-6.16-0.12-12.15-1.17-17.79-3.72c-1.8-0.82-3.54-1.87-5.14-3.05c-3.28-2.41-5.05-5.58-4.89-9.83c0.17-4.54,0.04-9.08,0.04-13.54
		c0.24-0.14,0.33-0.23,0.42-0.24c3.04-0.26,2.93-0.23,3.7,2.73c0.77,3,1.56,6.03,2.74,8.88c3.28,7.9,9.55,11.91,17.86,12.7
		c3.22,0.3,6.57,0.2,9.76-0.33c4.78-0.8,8.77-3.13,10.14-8.2c1.42-5.25,0.27-10.05-3.96-13.58c-3.61-3-7.52-5.67-11.47-8.22
		c-4.56-2.96-9.4-5.49-13.93-8.48c-3.27-2.16-6.52-4.49-9.28-7.24c-8.68-8.64-9.58-28.42,8.23-34.78
		c12.09-4.32,24.16-3.36,35.71,2.26c2.27,1.1,4.27,2.99,6.01,4.87c1.05,1.14,1.86,2.94,1.92,4.47
		C395.11,56.41,394.97,61.79,394.97,67.37z"/>
	<path class="st0" d="M842.56,67.5c0-0.84-0.01-1.5,0-2.16c0.01-0.49,0.06-0.98,0.1-1.64c1.84,0,3.6,0,5.37,0
		c2.94,0,5.89-0.07,8.83,0.04c4.69,0.17,6.52,1.12,9.26,4.46c9.1-6.7,19.18-7.04,29.54-4.26c8.18,2.2,12.17,8.25,13.29,16.37
		c0.27,1.97,0.39,3.98,0.39,5.97c0.04,12.11,0.02,24.22,0.01,36.33c0,0.49-0.05,0.97-0.09,1.55c-5.51,0-10.93,0-16.61,0
		c0-0.67,0-1.31,0-1.95c0-12.05,0.03-24.11-0.03-36.16c-0.01-2.1-0.2-4.22-0.57-6.29c-1.48-8.21-6.67-12.02-14.88-10.63
		c-2.55,0.43-4.97,1.74-7.4,2.75c-0.95,0.4-1.23,1.16-0.94,2.32c0.39,1.54,0.59,3.18,0.59,4.77c0.04,14.5,0.03,28.99,0.02,43.49
		c0,0.54-0.06,1.08-0.1,1.7c-5.56,0-10.98,0-16.65,0c0-0.66,0-1.3,0-1.94c0-14.28,0.03-28.55-0.03-42.83
		c-0.01-2.09-0.28-4.22-0.76-6.25c-0.87-3.66-3-5.26-6.77-5.49C844.36,67.6,843.59,67.55,842.56,67.5z"/>
	<path class="st0" d="M769.17,102.67c1.21,0.93,2.39,1.84,3.58,2.76c0.21,0.17,0.4,0.36,0.7,0.64c-2.47,4.48-5.53,8.44-9.35,11.8
		c-6.16,5.44-13.54,7.88-21.58,8.57c-8.79,0.75-17.44,0.2-25.56-3.65c-10.47-4.96-17.37-13.12-20.65-24.18
		c-3.97-13.36-3.34-26.55,3.21-38.96c8.38-15.88,21.8-23.58,39.83-22.94c7.68,0.27,15.07,1.67,21.85,5.62
		c5.71,3.33,8.84,8.07,8.81,14.78c-0.02,3.1,0,6.2,0,9.44c-1.02,0-2.26,0-3.42,0c-0.82-2.55-1.51-5.12-2.48-7.58
		c-4.19-10.69-11.99-16.4-23.56-16.49c-12.22-0.1-21.3,6.1-25.15,17.06c-1.21,3.43-2.03,7.05-2.53,10.65
		c-1.2,8.61-1.52,17.3,0.53,25.82c0.97,4,2.38,7.99,4.23,11.67c5.01,10.01,13.68,13.84,24.46,13.2c11.57-0.7,19.96-6.66,25.85-16.42
		c0.31-0.52,0.62-1.05,0.93-1.57C768.88,102.84,768.95,102.82,769.17,102.67z"/>
	<path class="st0" d="M987.11,214.05c-0.05,9.52-2.91,17.91-10.27,24.33c-6.32,5.51-13.86,7.42-22.08,7.12
		c-6.07-0.22-11.71-1.79-16.72-5.32c-6.96-4.92-10.84-11.76-12.12-20.08c-1.4-9.09-0.14-17.74,5.26-25.41
		c5.06-7.18,12.18-11.02,20.84-11.96c6.8-0.74,13.45-0.04,19.54,3.31c10.28,5.66,14.92,14.75,15.55,26.19
		C987.14,212.83,987.11,213.44,987.11,214.05z M969.88,214.04c-0.18-2.6-0.26-5.21-0.56-7.8c-0.53-4.5-1.6-8.86-4.06-12.73
		c-4.45-7-13.42-7.06-17.85-0.04c-1.17,1.85-2.1,3.94-2.7,6.04c-2.46,8.53-2.47,17.19-0.82,25.87c0.74,3.9,2.01,7.64,4.65,10.72
		c4.27,4.98,11.58,4.94,15.65-0.21c1.35-1.71,2.37-3.76,3.16-5.8C969.35,224.94,969.8,219.52,969.88,214.04z"/>
	<path class="st0" d="M809.42,125.45c-17.59-0.01-30.15-12.19-30.74-29.77c-0.21-6.15,0.67-12.09,3.6-17.56
		c5.5-10.29,14.38-15.21,25.84-15.67c8.65-0.35,16.49,1.91,22.92,8c5.43,5.14,8.26,11.59,9.08,18.95
		c0.89,7.99-0.24,15.62-4.57,22.55C830.05,120.73,820.84,125.45,809.42,125.45z M823.07,92.4c-0.15-1.64-0.31-4.8-0.78-7.92
		c-0.66-4.42-1.9-8.69-4.72-12.29c-4.17-5.31-11.89-5.43-15.96-0.05c-1.57,2.08-2.77,4.57-3.58,7.06
		c-2.4,7.42-2.44,15.07-1.51,22.74c0.55,4.55,1.67,8.95,4.25,12.83c2.73,4.1,7.04,5.79,11.56,4.53c3.66-1.03,5.82-3.73,7.34-7.01
		C822.39,106.46,822.96,100.23,823.07,92.4z"/>
	<path class="st0" d="M630.39,208.89c0.04-5.08-0.19-9.84-2.19-14.29c-1.8-4-4.98-6.17-9.41-6.28c-4.84-0.12-9.07,1.12-11.45,5.81
		c-0.72,1.42-1.23,2.97-1.65,4.51c-0.25,0.9-0.55,1.32-1.54,1.28c-1.87-0.07-3.75-0.02-5.79-0.02c-0.06-3.77-0.02-7.35,1.59-10.7
		c1.38-2.87,3.84-4.42,6.8-5.17c7.25-1.85,14.61-2.23,21.94-0.77c10.31,2.06,16.54,8.82,17.94,19.24c0.38,2.8,0.57,5.64,0.59,8.46
		c0.07,10.33,0.03,20.66,0.03,31c0,0.66,0,1.32,0,2.28c-2.02,0-3.98-0.24-5.85,0.05c-3.79,0.58-6.51-0.65-8.31-4.04
		c-0.37-0.69-1.02-1.24-1.62-1.96c-0.82,0.87-1.47,1.61-2.17,2.3c-3.53,3.47-7.9,4.84-12.72,4.94c-4.52,0.09-8.98-0.39-13.18-2.28
		c-6.66-3-10.19-9.44-9.61-16.73c0.64-8.09,4.97-12.87,12.51-15.16c6.45-1.96,13.08-2.35,19.75-2.47
		C627.42,208.87,628.8,208.89,630.39,208.89z M630.4,214.68c-3.89-0.11-7.51,0.09-11.05,1.19c-4.38,1.37-7.21,4.25-7.8,8.79
		c-0.34,2.64-0.16,5.41,0.2,8.06c0.33,2.37,1.73,4.32,3.93,5.49c5.2,2.76,14.22-1.84,14.64-7.73
		C630.7,225.3,630.4,220.07,630.4,214.68z"/>
	<path class="st0" d="M888.6,244.17c-5.71,0-11.13,0-16.85,0c0-0.73,0-1.43,0-2.12c0-21.94,0.02-43.88-0.03-65.81
		c-0.01-2.42-0.24-4.89-0.77-7.25c-0.87-3.89-3.12-5.54-7.11-5.72c-0.71-0.03-1.43,0-2.32,0c-0.04-0.72-0.08-1.3-0.09-1.89
		c-0.01-0.6,0-1.2,0-1.9c0.44-0.06,0.75-0.14,1.06-0.14c17.94,0.01,35.88-0.02,53.82,0.06c6.62,0.03,10,3.61,10,10.21
		c0,3.6,0,7.19,0,10.88c-1.3,0-2.45,0-3.77,0c-0.09-1.14-0.12-2.29-0.29-3.42c-1.04-7.01-4.96-11.14-12.04-11.62
		c-7.02-0.47-14.09-0.22-21.14-0.27c-0.1,0-0.2,0.09-0.4,0.18c0,10.76,0,21.57,0,32.6c9.32,0,18.61,0,28,0c0,1.98,0,3.73,0,5.71
		c-9.33,0-18.62,0-28.08,0C888.6,217.25,888.6,230.61,888.6,244.17z"/>
	<path class="st0" d="M512.37,79.78c0.2-2.36,0.32-4.4,0.55-6.44c0.6-5.21,3.56-8.38,8.6-9.55c7.11-1.64,14.32-2.05,21.48-0.59
		c10.48,2.14,16.76,9.24,17.97,19.99c0.25,2.2,0.37,4.43,0.38,6.64c0.04,10.72,0.02,21.44,0.02,32.16c0,0.66,0,1.32,0,2.22
		c-3.59,0-7.07,0.03-10.54-0.04c-0.37-0.01-0.78-0.55-1.08-0.92c-1.32-1.63-2.6-3.3-3.88-4.94c-0.29,0.12-0.49,0.14-0.57,0.25
		c-4.18,5.32-9.83,7.1-16.35,6.88c-4.6-0.16-9.08-0.78-13.11-3.2c-6.1-3.67-8.3-9.27-7.77-16.14c0.5-6.48,3.53-11.19,9.66-13.76
		c5.36-2.25,11.01-3,16.73-3.29c3.31-0.17,6.64-0.03,10.27-0.03c-0.41-6.59,0.05-12.98-4.72-17.9c-4.88-5.04-15.03-3.5-18.31,2.69
		c-0.8,1.5-1.28,3.18-1.8,4.81c-0.25,0.79-0.56,1.2-1.47,1.17C516.48,79.73,514.55,79.78,512.37,79.78z M544.64,94.7
		c-4.27-0.2-8.28-0.03-12.13,1.47c-2.82,1.1-4.96,2.96-6.06,5.8c-1.53,3.97-1.55,8.03-0.1,12.03c1.18,3.25,3.86,5.03,7.3,5.01
		c4.89-0.03,7.93-2.93,10.26-6.82c0.36-0.6,0.68-1.33,0.69-2.01C544.67,105.1,544.64,100.01,544.64,94.7z"/>
	<path class="st0" d="M1048.35,88.89c0-5.43-0.17-10.53-2.63-15.19c-1.96-3.73-5.23-5.47-9.42-5.46c-4.39,0.01-8.32,1.09-10.64,5.2
		c-0.89,1.57-1.43,3.35-2,5.08c-0.28,0.86-0.6,1.31-1.58,1.27c-1.87-0.07-3.75-0.02-5.77-0.02c-0.02-3.74-0.03-7.27,1.55-10.57
		c1.32-2.75,3.6-4.4,6.45-5.12c8.19-2.08,16.48-2.6,24.69-0.3c9.4,2.64,14.18,9.4,15.61,18.76c0.36,2.35,0.47,4.75,0.48,7.13
		c0.05,10.78,0.02,21.55,0.02,32.33c0,0.66,0,1.32,0,2.21c-3.58,0-7.01,0.03-10.43-0.04c-0.43-0.01-0.92-0.55-1.25-0.96
		c-1.32-1.63-2.59-3.29-3.94-5.03c-0.35,0.31-0.58,0.45-0.74,0.66c-2.94,3.61-6.7,5.81-11.32,6.35c-4.78,0.56-9.54,0.31-14.15-1.25
		c-8.16-2.75-12.41-9.68-11.48-18.24c0.76-6.99,4.38-11.54,10.94-13.9c6.09-2.2,12.44-2.73,18.83-2.93
		C1043.77,88.83,1045.98,88.89,1048.35,88.89z M1048.36,94.29c-3.56,0.43-6.9,0.6-10.12,1.28c-4.77,1.01-8.03,3.96-8.72,8.9
		c-0.38,2.74-0.26,5.67,0.26,8.4c0.63,3.37,2.9,5.56,6.45,6.09c4.67,0.7,10.95-3.54,12.07-8.13c0.04-0.16,0.05-0.33,0.05-0.5
		C1048.36,105.17,1048.36,100.02,1048.36,94.29z"/>
	<path class="st0" d="M467.49,216.3c-12.94,0-25.74,0-38.72,0c0.07,5.9,0.31,11.59,3.13,16.78c3.12,5.74,8.66,7.79,15.89,6.15
		c5.05-1.15,8.6-4.42,11.86-8.14c0.54-0.62,1.05-1.27,1.68-2.04c1.36,1.01,2.63,1.96,4,2.97c-5.1,7.41-11.35,12.69-20.67,13.35
		c-4.88,0.35-9.66,0.11-14.27-1.58c-7.6-2.77-13.06-7.96-16.14-15.39c-4.19-10.13-4.09-20.43,0.32-30.42
		c4.17-9.44,11.85-14.36,22.07-15.34c6.27-0.6,12.32,0.28,17.9,3.28c9.84,5.3,14.01,13.78,13.42,24.78
		C467.85,212.53,467.66,214.34,467.49,216.3z M450.96,210.43c-0.51-4.22-0.84-8.3-1.56-12.3c-0.36-1.96-1.18-3.96-2.25-5.65
		c-3.49-5.49-10.55-5.7-14.34-0.44c-3.97,5.5-3.82,11.94-4.04,18.39C436.15,210.43,443.32,210.43,450.96,210.43z"/>
	<path class="st0" d="M588.05,216.27c-12.95,0-25.71,0-38.7,0c0,1.3-0.12,2.5,0.02,3.68c0.36,2.91,0.59,5.88,1.32,8.7
		c2.33,8.99,8.77,12.68,17.82,10.53c4.55-1.08,7.88-3.93,10.91-7.25c0.82-0.9,1.58-1.86,2.43-2.87c1.29,0.96,2.56,1.91,3.97,2.95
		c-3.36,5.04-7.26,9.48-12.91,11.49c-10.06,3.58-19.9,2.94-28.87-3.38c-6.03-4.25-9.65-10.25-11.15-17.39
		c-1.94-9.26-1.47-18.38,3.22-26.84c4.51-8.15,11.71-12.36,20.89-13.24c7.52-0.72,14.63,0.62,20.91,5
		c7.64,5.34,10.94,12.85,10.56,22.07C588.4,211.88,588.21,214.03,588.05,216.27z M571.06,210.47c0.12-4.86-0.14-9.51-1.52-14.01
		c-0.46-1.51-1.17-3.03-2.07-4.32c-3.57-5.13-10.36-5.19-14.11-0.2c-0.33,0.44-0.67,0.9-0.93,1.38c-2.88,5.37-3.07,11.19-3.12,17.15
		C556.65,210.47,563.74,210.47,571.06,210.47z"/>
	<path class="st0" d="M522.53,202.9c-3.94,0.4-3.94,0.4-5.12-3.22c-3.51-10.79-12.88-12.78-20.98-10.66
		c-3.24,0.85-5.16,3.19-5.7,6.5c-0.52,3.19,0.48,5.9,3.22,7.67c2.22,1.44,4.6,2.66,6.99,3.81c5.38,2.61,10.91,4.92,16.19,7.72
		c4.27,2.27,7.3,5.78,8.02,10.83c0.89,6.26-0.89,11.42-6.28,15.05c-4,2.7-8.51,3.99-13.25,4.52c-7.23,0.81-14.42,0.7-21.41-1.54
		c-3.79-1.22-7.39-3.05-8.17-7.45c-0.64-3.57-0.72-7.24-1.07-11.14c1.61,0,2.82-0.08,4,0.05c0.36,0.04,0.79,0.63,0.95,1.05
		c0.41,1.08,0.62,2.25,1.04,3.33c2.61,6.76,7.75,10.35,14.98,10.23c2.58-0.04,5.21-0.36,7.7-1.01c3.29-0.87,5.23-3.21,5.6-6.7
		c0.34-3.17-0.99-5.65-3.68-7.1c-4.33-2.34-8.78-4.46-13.26-6.51c-4.71-2.15-9.41-4.28-13.16-7.97c-7.22-7.1-5.95-18.34,2.65-23.7
		c4.2-2.62,8.85-3.73,13.74-4.03c6.13-0.37,12.2-0.09,18.12,1.73c5.33,1.64,8.77,4.89,8.88,10.82
		C522.57,197.72,522.53,200.26,522.53,202.9z"/>
	<path class="st0" d="M657.89,63.61c0,2.01,0,3.77,0,5.73c-0.58,0.04-1.17,0.1-1.75,0.1c-3.61,0.01-7.22,0.04-10.83-0.01
		c-1.11-0.02-1.57,0.26-1.56,1.48c0.04,12.05-0.01,24.1,0.05,36.16c0.01,2.26,0.19,4.56,0.58,6.78c0.78,4.53,3.64,6.58,8.12,5.62
		c2.77-0.59,5.42-1.77,8.4-2.77c0.3,0.58,0.94,1.55,1.29,2.61c0.11,0.34-0.41,1.05-0.82,1.38c-4.51,3.61-9.81,4.73-15.43,4.76
		c-4.59,0.02-8.97-0.75-12.69-3.68c-4.69-3.69-6.1-8.87-6.14-14.49c-0.08-11.88-0.03-23.77-0.03-35.66c0-0.65,0-1.31,0-2.12
		c-2.61,0-5.03,0-7.6,0c0-1.95,0-3.75,0-5.74c2.41,0,4.88,0,7.6,0c0-2.87,0.14-5.57-0.04-8.26c-0.16-2.37,0.41-4.27,2.13-5.96
		c1.61-1.59,2.68-4.05,4.56-4.94c1.82-0.86,4.35-0.22,6.57-0.24c1.1-0.01,2.19,0,3.46,0c0,6.5,0,12.8,0,19.25
		C648.53,63.61,653.11,63.61,657.89,63.61z"/>
	<path class="st0" d="M940.9,63.69c4.84,0,9.38,0,14.07,0c0,1.89,0,3.68,0,5.68c-4.58,0-9.15,0-13.82,0
		c-0.07,0.5-0.16,0.81-0.16,1.12c0.01,13.05-0.02,26.09,0.08,39.14c0.01,1.97,0.41,3.98,0.96,5.88c0.83,2.84,2.93,4.21,5.9,4.15
		c3.6-0.06,6.82-1.32,9.88-3.47c0.63,1.23,1.21,2.34,1.82,3.54c-2.32,2.19-4.99,3.68-8.01,4.55c-4.66,1.34-9.41,1.57-14.16,0.65
		c-8.11-1.57-13.09-8.01-13.13-17.02c-0.05-12.05-0.01-24.1-0.01-36.14c0-0.66,0-1.32,0-2.23c-2.55,0-5.01,0-7.61,0
		c0-2.03,0-3.83,0-5.81c2.45,0,4.92,0,7.61,0c0-3.44,0.05-6.7-0.03-9.95c-0.03-1.25,0.31-2.21,1.15-3.14
		c1.56-1.73,2.97-3.59,4.52-5.34c0.39-0.44,1.05-0.89,1.6-0.91c3.05-0.09,6.1-0.04,9.34-0.04C940.9,50.77,940.9,57.12,940.9,63.69z"
		/>
	<path class="st0" d="M1157.67,44.36c0,6.54,0,12.85,0,19.32c4.72,0,9.3,0,13.99,0c0,1.96,0,3.75,0,5.75c-4.68,0-9.26,0-14.02,0
		c0,0.8,0,1.39,0,1.99c0,12.33-0.04,24.67,0.04,37c0.01,2.25,0.32,4.55,0.86,6.74c0.78,3.13,2.94,4.55,6.14,4.51
		c2.8-0.04,4.38-0.58,9.81-3.36c0.59,1.15,1.18,2.3,1.77,3.47c-4.73,4.26-10.33,5.61-16.38,5.67c-4.71,0.04-9.21-0.74-12.99-3.81
		c-4.74-3.84-5.98-9.15-5.99-14.9c-0.03-11.56,0-23.11-0.01-34.67c0-2.98,0.35-2.59-2.7-2.62c-1.55-0.02-3.1,0-4.8,0
		c0-1.92,0-3.72,0-5.69c2.38,0,4.81,0,7.51,0c0-2.13,0.21-4.13-0.04-6.07c-0.51-3.93,0.88-6.89,3.42-9.88c2.18-2.55,4.27-4,7.68-3.5
		C1153.74,44.58,1155.59,44.36,1157.67,44.36z"/>
	<path class="st0" d="M1128.03,84.9c-1.53,0-2.68,0-3.81,0c-0.39-1.85-0.64-3.66-1.15-5.4c-1.95-6.63-7.08-10.56-13.96-11.21
		c-8.84-0.84-13.55,4.1-15.7,10.74c-3.15,9.76-3.16,19.74-0.21,29.51c3.37,11.15,15.54,14.87,25.07,7.85
		c2.3-1.69,4.19-3.93,6.25-5.94c0.43-0.42,0.78-0.92,1.23-1.45c1.34,1,2.62,1.94,3.97,2.95c-5.1,7.55-11.53,12.7-20.86,13.34
		c-4.56,0.31-9.11,0.26-13.55-0.96c-8.79-2.42-15.19-7.73-18.64-16.18c-4.13-10.11-4-20.32,0.81-30.16
		c4.47-9.14,12.19-14.04,22.18-15.24c6.54-0.78,13.07-0.44,19.49,1.24c5,1.31,8.02,4.37,8.36,9.67
		C1127.74,77.35,1127.85,81.05,1128.03,84.9z"/>
	<path class="st0" d="M760.15,204.91c-1.55,0-2.7,0-3.89,0c-0.32-1.68-0.53-3.32-0.96-4.91c-2.34-8.75-11.56-13.84-20.27-11.2
		c-4.23,1.28-6.91,4.31-8.71,8.18c-2.56,5.52-3.19,11.45-2.95,17.4c0.19,4.51,0.55,9.13,1.71,13.47
		c3.12,11.68,15.32,15.82,25.17,8.66c2.8-2.03,5.13-4.69,7.85-7.22c0.98,0.72,2.25,1.65,3.67,2.7c-0.56,0.82-1.06,1.59-1.61,2.33
		c-6.27,8.45-14.76,11.82-25.11,11.18c-4.71-0.29-9.27-1.08-13.47-3.28c-6.36-3.33-10.88-8.36-13.33-15.13
		c-3.37-9.32-3.34-18.66,0.68-27.74c4.48-10.14,12.63-15.46,23.52-16.62c5.88-0.63,11.75-0.29,17.54,0.99
		c5.93,1.31,8.76,3.89,9.42,9.09C759.93,196.75,759.93,200.75,760.15,204.91z"/>
	<path class="st0" d="M592.47,124.14c-5.56,0-11.02,0-16.71,0c0-0.72,0-1.37,0-2.01c-0.02-14.71-0.01-29.43-0.1-44.14
		c-0.01-1.75-0.37-3.54-0.84-5.23c-0.93-3.33-2.93-4.84-6.37-5.1c-0.87-0.07-1.75-0.09-2.71-0.14c0-1.27,0-2.42,0-3.58
		c0.08-0.06,0.17-0.19,0.25-0.19c5.21,0.05,10.43,0.01,15.64,0.19c3.16,0.11,5.78,1.46,7.5,4.41c0.5-0.37,0.94-0.69,1.37-1.01
		c5.96-4.39,12.58-5.99,19.81-4.28c4.07,0.96,6.98,3.5,8.52,7.74c-2.1,1.62-4.22,3.26-6.4,4.94c-0.23-0.19-0.43-0.29-0.56-0.45
		c-3.81-4.87-8.81-5.34-14.26-3.68c-1.66,0.51-3.21,1.46-4.68,2.42c-0.48,0.31-0.74,1.28-0.73,1.94c0.02,1.94,0.35,3.87,0.35,5.81
		c0.03,13.6,0.02,27.21,0.01,40.81C592.57,123.07,592.51,123.56,592.47,124.14z"/>
	<path class="st0" d="M651.53,183.76c2.02,0,3.94-0.02,5.87,0.01c3.27,0.05,6.55,0.05,9.81,0.22c3.21,0.16,5.92,1.38,7.71,4.41
		c0.68-0.49,1.29-0.93,1.9-1.37c5.8-4.07,12.19-5.51,19.11-3.95c4.22,0.95,7.16,3.58,8.73,7.81c-2.15,1.64-4.29,3.28-6.73,5.14
		c-0.18-0.35-0.25-0.65-0.44-0.84c-4.81-5.11-12.65-5.72-18.35-1.5c-0.95,0.7-1.3,1.44-1.18,2.65c0.23,2.37,0.33,4.76,0.34,7.14
		c0.03,12.88,0.01,25.76,0.01,38.64c0,0.65,0,1.3,0,2.04c-5.6,0-11.02,0-16.62,0c-0.04-0.72-0.12-1.41-0.12-2.1
		c-0.01-14.1,0.03-28.21-0.04-42.31c-0.01-2.14-0.28-4.33-0.78-6.41c-0.92-3.86-2.98-5.42-6.97-5.66c-0.71-0.04-1.43-0.01-2.25-0.01
		C651.53,186.33,651.53,185.14,651.53,183.76z"/>
	<path class="st0" d="M957.08,67.51c0-1.26,0-2.41,0-3.57c0.06-0.05,0.15-0.19,0.23-0.18c5.21,0.04,10.43,0.01,15.64,0.19
		c3.16,0.11,5.78,1.47,7.46,4.31c1.63-1.05,3.14-2.19,4.79-3.04c5.54-2.85,11.35-3.74,17.38-1.85c3.27,1.02,5.72,3.14,7.09,6.34
		c0.19,0.45,0.08,1.36-0.25,1.63c-1.82,1.53-3.75,2.93-5.71,4.43c-0.29-0.28-0.53-0.49-0.75-0.72c-5.05-5.18-12.72-5.7-18.5-1.28
		c-0.81,0.62-1.24,1.22-1,2.37c0.28,1.34,0.3,2.76,0.3,4.14c0.02,13.99,0.01,27.98,0.01,41.97c0,0.59,0,1.19,0,1.89
		c-5.62,0-11.04,0-16.69,0c0-0.71,0-1.35,0-2c-0.02-14.6-0.02-29.2-0.1-43.8c-0.01-1.81-0.33-3.66-0.79-5.41
		c-0.91-3.48-2.99-5.05-6.58-5.29C958.81,67.59,957.99,67.56,957.08,67.51z"/>
	<path class="st0" d="M54.22,143.59c0-51.49,42.38-92.97,93.62-92.32c50.22,0.64,92.24,42.23,91.14,94.46
		c-1.07,50.32-42.84,91.05-93.78,90.31C95.44,235.32,54.18,194.59,54.22,143.59z M55.24,143.72c0.01,49.94,40.37,90.55,89.92,91.3
		c50.61,0.77,91.97-39.74,92.8-89.75c0.85-51.37-40.48-92.4-90.24-92.98C96.79,51.71,55.17,93.07,55.24,143.72z"/>
	<path class="st0" d="M33.24,119.17c2.61,0.72,5.23,1.43,7.84,2.15c-0.07,0.25-0.14,0.5-0.21,0.75c-3.53-0.91-7.07-1.82-10.58-2.72
		c-0.07-1.53,0.43-2.22,1.92-2.44c2.38-0.34,4.72-0.95,7.44-1.52c-2.05-1.59-3.79-2.94-5.54-4.28c-1.59-1.22-1.59-1.22-0.91-3.19
		c3.92,0.28,7.51,2.86,11.62,1.98c-0.41,1.93-1.52,2.72-3.51,2.29c-1.88-0.41-3.73-0.94-5.73-1.17c2.32,1.8,4.64,3.6,6.96,5.4
		c-0.05,0.16-0.11,0.32-0.16,0.49c-3.05,0.63-6.1,1.26-9.14,1.88C33.24,118.91,33.24,119.04,33.24,119.17z"/>
	<path class="st0" d="M262.72,118.33c0.79,1.56,0.25,2.35-0.9,3.09c-1.97,1.28-3.83,2.73-6.06,4.35c2.66,0.63,4.89,1.23,7.16,1.66
		c1.45,0.27,1.99,0.98,1.7,2.51c-3.61,1.3-7.87,0.56-11.28,2.85c-0.63-1.52,0.15-2.96,2.25-3.42c1.89-0.41,3.8-0.69,5.71-1.29
		c-2.86-0.7-5.72-1.39-9.13-2.23c3.01-2.18,5.61-4.06,8.22-5.94c-0.04-0.09-0.08-0.18-0.12-0.27c-2.74,0.43-5.47,0.87-8.21,1.3
		c-0.04-0.23-0.09-0.47-0.13-0.7C255.48,119.36,259.15,118.99,262.72,118.33z"/>
	<path class="st0" d="M39.54,155.11c0.22,1.78,0.53,3.79,0.68,5.82c0.1,1.34,0.06,2.93-1.5,3.32c-1.04,0.26-2.27-0.23-3.58-0.4
		c-0.21,0.29-0.57,1.17-1.22,1.63c-1.39,0.98-3.26,0.48-3.87-1.17c-0.76-2.04-1.13-4.22-1.69-6.42
		C32.12,156.55,36.15,157.33,39.54,155.11z M33.94,159.09c-1.11,0.17-2.25,0.31-3.38,0.53c-0.31,0.06-0.84,0.47-0.81,0.58
		c0.28,0.97,0.45,2.13,1.11,2.79c0.43,0.44,1.69,0.41,2.42,0.15C34.52,162.71,34.71,161.2,33.94,159.09z M34.48,159
		c0.78,1.25,1.19,2.36,1.99,2.99c0.43,0.33,1.91,0.1,2.21-0.35c0.56-0.84,0.6-2.03,0.94-3.4C37.76,158.51,36.47,158.7,34.48,159z"/>
	<path class="st0" d="M228.04,57.06c0.83,0.9,2.52,1.46,1.57,3.03c-0.64,1.05-1.69,1.85-2.61,2.83c0.8,0.85,1.54,1.67,2.3,2.47
		c0.22,0.23,0.49,0.43,0.8,0.7c1.21-1.13,2.37-2.21,3.62-3.38c0.5,0.56,0.93,1.04,1.18,1.31c-2,2.14-3.95,4.16-5.81,6.27
		c-0.56,0.64-0.84,1.53-1.25,2.33c-2.01-1.12-2.17-2.11-0.3-3.98c0.59-0.59,1.21-1.13,1.96-1.83c-1.06-1.12-2.03-2.15-3.12-3.31
		c-1.31,1.22-2.55,2.38-3.93,3.67c-0.49-0.46-0.95-0.89-1.7-1.59c1.45-1.37,2.93-2.6,4.21-4.01
		C226.17,60.25,228.41,59.55,228.04,57.06z"/>
	<path class="st0" d="M245.25,100.59c-0.29-0.68-0.54-1.28-0.86-2.03c1.84-0.78,3.68-1.39,5.35-2.31c1.54-0.85,3.99-0.57,4.64-3.29
		c0.75,2.26,1.59,4.51,2.22,6.8c0.33,1.22-0.2,2.27-1.44,2.87c-1.21,0.59-2.25,0.33-3.21-0.53c-0.2-0.18-0.41-0.36-0.85-0.74
		c-1.12,1.77-2.18,3.45-3.42,5.39c-0.19-0.77-0.68-1.67-0.53-2.44c0.19-0.98,0.87-1.89,1.41-2.78c0.5-0.83,1.09-1.6,1.64-2.4
		c-0.09-0.13-0.18-0.25-0.27-0.38C248.45,99.33,246.96,99.91,245.25,100.59z M254.8,96.63c-1.4,0.59-2.75,1.16-4.09,1.73
		c0.82,2.19,1.8,2.77,3.32,2.11C255.63,99.78,255.9,98.65,254.8,96.63z"/>
	<path class="st0" d="M246.94,194.84c0.66-1.35,1.28-2.62,1.94-3.99c-1.53-0.76-2.9-1.45-4.41-2.2c0.3-0.67,0.56-1.25,0.84-1.88
		c3.66,0.92,6.48,4.06,10.44,3.98c-0.61,2.46-1.27,2.78-3.75,1.58c-0.73-0.36-1.47-0.71-2.28-1.1c-0.3,0.55-0.56,0.97-0.77,1.4
		c-0.41,0.83-0.81,1.68-1.25,2.61c1.61,0.81,3.13,1.58,4.8,2.42c-0.34,0.69-0.64,1.31-0.97,1.98c-2.54-1.24-4.95-2.48-7.43-3.58
		c-0.87-0.39-1.9-0.41-2.87-0.6c0.56-2.33,1.25-2.68,3.63-1.55C245.49,194.23,246.14,194.49,246.94,194.84z"/>
	<path class="st0" d="M102.29,40.15c0.58,1.47,1.17,2.94,1.82,4.59c-0.69,0.3-1.31,0.57-2.03,0.89c-1.15-2.75-2.2-5.42-3.4-8.04
		c-0.33-0.71-1.07-1.23-1.74-1.97c2.12-0.79,4.31-2.35,7.06-2.25c1.96,0.07,3.12,2.32,2.13,4.04c-0.27,0.47-0.67,0.88-1.18,1.54
		c1.74,1.11,3.45,2.2,5.2,3.32c-1.17,1.12-2.54,0.84-3.88,0c-1.24-0.78-2.42-1.65-3.63-2.48C102.53,39.92,102.41,40.04,102.29,40.15
		z M101.84,39.15c0.2,0.12,0.4,0.24,0.6,0.36c0.62-0.79,1.58-1.51,1.75-2.38c0.13-0.7-0.51-1.9-1.16-2.3
		c-0.66-0.4-1.76-0.09-3.01-0.09C100.77,36.55,101.3,37.85,101.84,39.15z"/>
	<path class="st0" d="M76.86,240.1c-3.45-1.87-1.11-5.17-1.69-8.23c-1.26,1.5-2.29,2.73-3.44,4.1c-0.54-0.42-1.08-0.84-1.75-1.35
		c1.84-2.34,3.67-4.55,5.37-6.86c0.46-0.63,0.54-1.54,0.87-2.54c1.71,1.55,4.24,2.65,5.46,5.2c0.81,1.7-0.42,3.61-2.31,3.68
		c-0.6,0.02-1.21-0.1-2.15-0.19C77.1,235.89,76.99,237.87,76.86,240.1z M75.53,231.27c0.01,0.23,0.02,0.46,0.03,0.69
		c0.94,0.16,2.03,0.67,2.78,0.37c0.74-0.3,1.51-1.42,1.56-2.22c0.05-0.74-0.85-1.54-1.47-2.54
		C77.27,229.05,76.4,230.16,75.53,231.27z"/>
	<path class="st0" d="M192.29,247.91c1.84,1.14,3.5,2.17,5.34,3.31c-3.37,2.1-5.2-1.62-8.15-2.51c0.75,1.84,1.36,3.34,2.04,5.01
		c-0.72,0.29-1.32,0.53-2.06,0.82c-1.15-2.72-2.22-5.38-3.43-7.98c-0.33-0.72-1.08-1.25-1.85-2.08c1.96-0.66,4.14-1.5,6.37-2.12
		c1.21-0.34,2.31,0.13,2.94,1.34c0.64,1.24,0.4,2.35-0.52,3.36C192.81,247.26,192.65,247.47,192.29,247.91z M187.36,243.71
		c0.78,1.85,1.33,3.16,2.1,4.98c0.89-0.97,1.93-1.61,2.07-2.4c0.13-0.78-0.45-2.02-1.12-2.48
		C189.8,243.37,188.65,243.71,187.36,243.71z"/>
	<path class="st0" d="M237.35,220.55c-2.34-1.85-4.46-3.62-6.69-5.26c-0.72-0.53-1.7-0.71-2.72-1.11c1.18-1.36,2.54-3.06,4.06-4.62
		c1-1.02,2.3-1.36,3.63-0.51c1.25,0.8,1.52,1.96,1.09,3.34c-0.06,0.2-0.04,0.42-0.07,0.93c2.06,0.11,4.06,0.21,6.23,0.32
		c-1.95,3.43-5.22,1.14-8.35,1.67c1.51,1.24,2.73,2.25,4.17,3.44C238.3,219.31,237.9,219.84,237.35,220.55z M234.55,215.41
		c0.28-1.3,0.82-2.35,0.58-3.16c-0.21-0.71-1.29-1.54-2.03-1.6c-0.82-0.06-1.7,0.72-2.92,1.3
		C231.8,213.24,232.95,214.15,234.55,215.41z"/>
	<path class="st0" d="M257.48,169.62c1.96-0.78,3.82-1.52,5.99-2.38c-0.4,0.84-0.59,1.85-1.19,2.38c-0.75,0.66-1.83,0.97-2.79,1.37
		c-0.89,0.37-1.82,0.64-2.74,0.96c0,0.15,0,0.29,0,0.44c1.6,0.45,3.21,0.91,4.87,1.37c-0.18,0.69-0.33,1.27-0.54,2.07
		c-1.93-0.47-3.77-1.07-5.66-1.34c-1.72-0.24-3.48-1.86-5.64-0.2c0.72-2.22,1.36-4.46,2.19-6.64c0.42-1.12,1.41-1.71,2.68-1.54
		c1.35,0.18,2.24,0.89,2.47,2.3C257.16,168.74,257.29,169.04,257.48,169.62z M255.8,172.21c0.2-0.11,0.4-0.21,0.6-0.32
		c-0.25-0.92-0.23-2.13-0.83-2.69c-0.57-0.54-1.91-0.76-2.67-0.47c-0.69,0.26-1.05,1.38-1.72,2.36
		C253.07,171.55,254.44,171.88,255.8,172.21z"/>
	<path class="st0" d="M204.35,52.81c-0.66-0.43-1.2-0.77-1.71-1.11c1.32-3.55,4.8-5.92,5.22-10.11c1.56,1.14,3.41,2.37,5.13,3.78
		c1.06,0.87,1.43,2.08,0.75,3.44c-0.64,1.3-1.73,1.62-3.05,1.47c-0.27-0.03-0.55-0.03-1.12-0.06c0.09,2.06,0.18,4.05,0.26,5.99
		c-1.45-0.15-2.15-1.02-2.19-3.13c-0.03-1.45-0.01-2.89-0.01-4.34c-0.17-0.03-0.34-0.07-0.51-0.1
		C206.23,49.99,205.33,51.35,204.35,52.81z M210.29,43.77c-1.08,1.66-1.87,2.88-2.99,4.59c1.38,0.14,2.5,0.58,3.24,0.23
		c0.7-0.34,1.37-1.52,1.37-2.33C211.91,45.52,210.99,44.79,210.29,43.77z"/>
	<path class="st0" d="M176.45,253.48c1.63,1.39,3.12,2.67,4.77,4.08c-3.65,1.59-4.89-2.4-7.63-3.66c0.43,1.88,0.79,3.46,1.19,5.2
		c-0.7,0.21-1.31,0.38-2.08,0.61c-0.75-2.89-1.42-5.68-2.23-8.42c-0.22-0.76-0.89-1.39-1.44-2.2c2.13-0.56,4.48-1.67,7.11-1.31
		c2.12,0.29,3.01,2.84,1.61,4.46C177.43,252.6,177.04,252.91,176.45,253.48z M173.41,253.35c1.31-0.11,2.48-0.47,2.56-1.76
		c0.05-0.86-0.35-2.05-0.98-2.56c-0.56-0.46-1.72-0.2-2.81-0.26C172.67,250.61,173.04,251.97,173.41,253.35z"/>
	<path class="st0" d="M39.19,195.03c-1.98-3.4,1.49-5.19,2.58-8.17c-1.9,0.77-3.43,1.39-5.07,2.06c-0.28-0.67-0.54-1.27-0.86-2.04
		c1.87-0.8,3.69-1.43,5.37-2.34c1.52-0.83,3.89-0.6,4.6-3.22c0.74,2.16,1.57,4.29,2.2,6.48c0.37,1.27-0.02,2.42-1.32,3.08
		c-1.26,0.64-2.35,0.37-3.35-0.54c-0.19-0.18-0.39-0.35-0.8-0.7C41.4,191.47,40.34,193.18,39.19,195.03z M42.3,186.59
		c-0.11,0.19-0.21,0.39-0.32,0.58c0.74,0.61,1.43,1.62,2.23,1.73c0.77,0.1,1.97-0.53,2.43-1.22c0.41-0.61,0.09-1.73,0.09-2.97
		C44.89,185.49,43.6,186.04,42.3,186.59z"/>
	<path class="st0" d="M47.68,89.56c2.19-0.3,4.17-0.56,6.31-0.85c-1.27,3.75-4.95,2.06-7.91,3.13c1.77,1.01,3.2,1.83,4.73,2.7
		c-0.34,0.65-0.65,1.23-1.01,1.93c-1.81-0.95-3.47-1.95-5.24-2.7c-1.6-0.67-2.91-2.6-5.34-1.51c1.15-1.91,2.22-3.86,3.47-5.71
		c0.78-1.16,1.98-1.57,3.37-1.01c1.34,0.54,1.75,1.6,1.64,2.95C47.67,88.7,47.68,88.92,47.68,89.56z M41.7,89.63
		c1.35,0.71,2.63,1.39,3.9,2.06c1.23-2.02,1.01-3.2-0.6-3.97C43.52,87,42.56,87.5,41.7,89.63z"/>
	<path class="st0" d="M99.96,253.01c-2.77-0.88-2.95-1.3-1.6-4.08c0.31-0.64,0.6-1.3,0.96-2.08c-1.33-0.66-2.59-1.28-4-1.98
		c-0.81,1.62-1.57,3.13-2.42,4.83c-0.65-0.3-1.26-0.59-2-0.93c1.26-2.59,2.48-5.06,3.65-7.55c0.45-0.95,1.26-1.96-0.18-2.98
		c1.31,0.51,3.08,0.42,2.84,2.26c-0.16,1.2-0.93,2.32-1.5,3.63c1.31,0.65,2.58,1.28,3.99,1.97c0.75-1.51,1.46-2.93,2.24-4.49
		c0.64,0.32,1.21,0.61,1.75,0.89C102.99,246.25,99.56,249,99.96,253.01z"/>
	<path class="st0" d="M120.94,254.54c0.79,2.02,1.53,3.89,2.29,5.82c-3.99-0.18-3.14-4.29-4.97-6.77c-0.52,1.88-0.95,3.43-1.42,5.14
		c-0.72-0.17-1.39-0.34-2.11-0.51c0.48-1.99,1.03-3.85,1.34-5.75c0.27-1.7,1.83-3.43,0.18-5.61c2.33,0.8,4.74,1.46,6.96,2.5
		c0.66,0.31,1.17,1.77,1.07,2.62c-0.09,0.78-1.05,1.5-1.73,2.13C122.26,254.37,121.71,254.35,120.94,254.54z M119.37,248.71
		c-0.36,1.51-0.69,2.91-1.03,4.3c2.18,0.69,3.3,0.22,3.67-1.39C122.4,249.94,121.65,249.04,119.37,248.71z"/>
	<path class="st0" d="M153.5,30.84c-0.18,1.99-0.32,3.56-0.48,5.35c-0.72-0.07-1.33-0.13-1.92-0.18c-0.65-3.75,1.2-7.51-0.31-11.27
		c1.82,0.21,3.96,0.33,6.05,0.73c1.34,0.25,2.46,1.01,2.49,2.68c0.02,1.59-0.81,2.45-2.24,2.88c-0.15,0.05-0.28,0.16-0.69,0.39
		c1.04,1.73,2.06,3.44,3.2,5.34C155.66,37.04,155.72,33,153.5,30.84z M153.7,30.4c0.57,0,1.02,0.04,1.45-0.01
		c1.2-0.15,1.87-1.03,1.74-2.05c-0.11-0.84-0.68-1.86-1.37-2.32c-0.89-0.6-1.84-0.34-1.82,1.09C153.71,28.15,153.7,29.18,153.7,30.4
		z"/>
	<path class="st0" d="M251.35,88.35c-0.01,3.17-3.03,5.95-6.39,5.89c-3.03-0.05-5.39-2.49-5.4-5.59c-0.02-3.22,2.87-5.94,6.32-5.95
		C248.98,82.69,251.36,85.15,251.35,88.35z M247.93,84.42c-2.99,0.41-5.16,1.4-6.58,3.43c-0.52,0.75-0.7,2.23-0.29,3
		c0.4,0.76,1.73,1.48,2.63,1.45c2.49-0.07,4.61-1.3,6-3.35c0.48-0.71,0.56-2.07,0.21-2.88C249.57,85.29,248.45,84.84,247.93,84.42z"
		/>
	<path class="st0" d="M162.71,261.68c-3.31,0.03-5.64-2.44-5.68-6.03c-0.04-3.43,2.29-5.86,5.63-5.89c3.13-0.03,5.61,2.69,5.64,6.18
		C168.33,259.26,165.99,261.66,162.71,261.68z M166.18,256.43c-0.42-1.26-0.75-2.98-1.57-4.42c-0.41-0.72-1.75-1.34-2.58-1.25
		c-0.83,0.09-1.97,0.97-2.27,1.77c-0.93,2.47-0.49,4.96,0.98,7.12c1.34,1.97,4.02,1.57,4.87-0.66
		C165.87,258.34,165.93,257.61,166.18,256.43z"/>
	<path class="st0" d="M72.65,64.02c-3.22-0.01-6.08-2.93-6.09-6.24c-0.01-2.99,2.49-5.52,5.48-5.54c3.24-0.02,6.24,3.04,6.2,6.34
		C78.21,61.53,75.65,64.02,72.65,64.02z M70.84,53.58c-1.79-0.02-3.2,1.61-2.72,3.34c0.71,2.53,2.33,4.4,4.69,5.52
		c1.72,0.82,3.65-0.31,3.87-2.12C77,57.76,73.4,53.6,70.84,53.58z"/>
	<path class="st0" d="M83.55,42.89c2.09,3.06,4.17,6.13,6.26,9.19c-0.09,0.19-0.18,0.39-0.27,0.58c-3.45-0.92-6.9-1.84-10.85-2.89
		c1.65,2.55,3.07,4.72,4.48,6.89c-0.15,0.09-0.29,0.19-0.44,0.28c-2.96-2.25-3.47-6.86-7.31-8.39c0.69-1.06,1.73-1.46,3.46-1.01
		c2.62,0.69,5.23,1.4,8.2,2.19c-1.54-2.32-2.9-4.37-4.26-6.41C83.07,43.18,83.31,43.04,83.55,42.89z"/>
	<path class="st0" d="M259.97,164.13c0.65-0.17,1.19-0.29,1.7-0.46c1.46-0.48,2.4-2.29,1.98-3.75c-0.35-1.2-1.61-1.62-2.63-0.73
		c-0.95,0.83-1.72,1.87-2.56,2.83c-1.42,1.64-2.75,2.08-4.2,1.38c-1.31-0.63-1.85-2.23-1.44-4.23c0.61-2.95,1.77-3.69,4.72-2.61
		c-0.82,0.18-1.43,0.14-1.78,0.42c-0.77,0.62-1.68,1.3-2.01,2.15c-0.23,0.59,0.23,1.76,0.77,2.2c0.34,0.27,1.57-0.13,2.09-0.59
		c0.98-0.87,1.72-2.02,2.6-3.02c0.85-0.98,1.86-1.55,3.24-1.12c1.44,0.45,2.05,1.55,2.08,2.89c0.02,1.08-0.14,2.23-0.5,3.25
		C263.3,164.79,262.27,165.11,259.97,164.13z"/>
	<path class="st0" d="M56.48,209.3c0.37-0.57,0.65-1.01,0.94-1.44c0.78-1.19,0.65-2.37-0.28-3.34c-0.43-0.44-1.31-0.85-1.81-0.69
		c-0.51,0.16-1.09,1-1.14,1.58c-0.11,1.42,0.05,2.87,0.13,4.31c0.07,1.42-0.43,2.53-1.77,3.08c-1.34,0.55-2.51,0.09-3.46-0.91
		c-0.53-0.56-1.02-1.18-1.38-1.85c-1.25-2.34-0.92-3.28,1.92-4.81c-0.46,0.72-0.79,1.06-0.92,1.47c-0.24,0.76-0.63,1.6-0.48,2.31
		c0.24,1.2,0.89,2.47,2.39,2.29c1.54-0.18,1.49-1.54,1.48-2.72c-0.02-1.22-0.09-2.44-0.08-3.65c0.02-1.3,0.68-2.39,1.9-2.6
		c0.91-0.16,2.11,0.09,2.86,0.61c0.8,0.55,1.39,1.58,1.8,2.51C59.46,207.47,58.91,208.45,56.48,209.3z"/>
	<path class="st0" d="M180.72,33.88c0.03-2.01-0.22-3.61-2.06-4.09c-0.67-0.18-1.81,0.03-2.18,0.49c-0.33,0.42-0.14,1.6,0.24,2.17
		c0.73,1.09,1.77,1.98,2.67,2.96c0.99,1.08,1.35,2.31,0.6,3.66c-0.76,1.36-2.05,1.62-3.45,1.44c-0.76-0.1-1.53-0.31-2.23-0.62
		c-2.24-0.98-2.57-2-1.36-4.62c0.09,0.7,0.15,1.13,0.21,1.56c0.24,1.56,1.3,2.68,2.86,2.75c0.58,0.03,1.4-0.26,1.7-0.68
		c0.29-0.42,0.29-1.37,0-1.81c-0.73-1.1-1.66-2.07-2.57-3.04c-1.13-1.21-1.62-2.53-0.8-4.08c0.65-1.22,2.19-1.63,4-1.17
		C181.46,29.6,182.3,31.14,180.72,33.88z"/>
	<path class="st0" d="M33.22,124.18c-0.88,0.23-1.42,0.33-1.93,0.51c-1.32,0.46-1.99,1.47-1.89,2.8c0.04,0.56,0.48,1.33,0.94,1.55
		c0.45,0.21,1.37,0.03,1.75-0.32c0.97-0.9,1.75-2,2.6-3.02c0.98-1.18,2.08-2.04,3.74-1.39c1.61,0.64,2,1.99,1.89,3.52
		c-0.07,0.92-0.22,1.89-0.57,2.74c-0.77,1.9-1.78,2.18-3.97,1.15c1.81-0.36,3.53-0.79,3.63-2.88c0.04-0.76-0.3-1.82-0.85-2.22
		c-0.38-0.28-1.58,0.12-2.12,0.57c-0.96,0.81-1.69,1.9-2.52,2.86c-1,1.17-2.25,1.66-3.72,1.07c-1.39-0.56-1.71-1.81-1.64-3.17
		c0.04-0.71,0.13-1.44,0.35-2.12C29.64,123.65,30.54,123.26,33.22,124.18z"/>
	<path class="st0" d="M64.33,217.3c0.93-1.99,0.65-2.77-1.94-5.01c-0.97,0.8-1.94,1.6-3.06,2.52c0.5,0.63,0.98,1.21,1.43,1.8
		c0.43,0.56,0.83,1.14,1.25,1.71c-0.15,0.12-0.31,0.24-0.46,0.36c-0.95-1.05-1.9-2.11-2.94-3.26c-1.18,0.98-2.27,1.89-3.46,2.88
		c1.45,1.59,2.19,3.92,5.18,3.09c-1.57,1.36-2.53,1.37-3.63,0.11c-1.2-1.38-2.34-2.81-3.64-4.38c1.49-1.25,3.05-2.39,4.39-3.74
		c1.25-1.27,3.64-1.74,3.15-4.77c1.9,2.28,3.62,4.14,5.09,6.18C66.7,216.19,65.37,216.77,64.33,217.3z"/>
	<path class="st0" d="M126.51,257c0.36,1.95,0.87,3.7,3.11,3.75c0.68,0.02,1.76-0.29,1.95-0.74c0.24-0.6,0.02-1.67-0.42-2.2
		c-0.8-0.97-1.9-1.69-2.88-2.5c-1.25-1.04-1.75-2.36-1.11-3.85c0.64-1.48,2.05-1.72,3.52-1.63c0.44,0.03,0.88,0.12,1.31,0.23
		c2.43,0.61,3.01,1.7,2.11,4.52c-0.19-0.76-0.18-1.29-0.43-1.61c-0.62-0.78-1.24-1.74-2.08-2.1c-0.58-0.25-1.77,0.13-2.28,0.63
		c-0.8,0.78-0.15,1.64,0.56,2.27c1.08,0.96,2.19,1.88,3.28,2.82c1.01,0.87,1.37,2.1,0.74,3.14c-0.5,0.83-1.55,1.61-2.49,1.82
		c-1.06,0.24-2.33-0.01-3.41-0.35C125.92,260.54,125.52,259.35,126.51,257z"/>
	<path class="st0" d="M212.22,234.19c-0.78-0.55-1.16-0.83-1.55-1.09c-1.16-0.77-2.36-0.77-3.37,0.14
		c-0.47,0.42-0.98,1.32-0.82,1.76c0.21,0.57,1.04,1.19,1.67,1.27c1.19,0.15,2.43-0.08,3.64-0.13c1.5-0.06,2.91,0.09,3.64,1.7
		c0.6,1.32,0.16,2.77-1.27,3.95c-0.51,0.42-1.07,0.79-1.67,1.08c-2.24,1.1-3.3,0.67-4.48-2.03c0.57,0.39,0.9,0.6,1.21,0.84
		c1.29,1,2.63,0.93,3.79-0.08c0.5-0.44,1.02-1.36,0.88-1.91c-0.14-0.55-1.03-1.18-1.67-1.27c-1.19-0.18-2.43,0.01-3.65,0.02
		c-2.18,0.02-3.23-0.58-3.72-2.08c-0.43-1.32,0.31-2.76,1.97-3.85C209.28,230.9,210.8,231.26,212.22,234.19z"/>
	<path class="st0" d="M202.95,238.9c-2.17-2.28-3.62-0.25-5.47,0.54c0.69,1.26,1.31,2.4,1.97,3.63c1.38-0.68,2.66-1.32,3.94-1.95
		c0.11,0.2,0.23,0.4,0.34,0.61c-1.23,0.68-2.45,1.36-3.83,2.13c0.73,1.35,1.42,2.64,2.17,4.04c1.83-1.12,4.15-1.43,4.08-4.31
		c1,1.79,0.8,2.59-0.72,3.42c-1.6,0.88-3.2,1.74-4.93,2.68c-0.96-1.74-1.78-3.5-2.84-5.09c-0.99-1.48-1.04-3.85-3.89-4.05
		c2.48-1.35,4.67-2.62,6.93-3.73C201.8,236.26,202.38,236.83,202.95,238.9z"/>
	<path class="st0" d="M251.82,177.17c-2.21,0.32-2.71,0.92-3.39,4.32c1.2,0.44,2.43,0.88,3.72,1.34c0.58-1.46,1.1-2.76,1.62-4.07
		c0.18,0.05,0.37,0.11,0.55,0.16c-0.4,1.34-0.79,2.68-1.25,4.21c1.36,0.5,2.72,1,4.07,1.5c1.6-2.79,1.68-3.8,0.49-5.86
		c1.78,0.56,2.21,1.31,1.63,2.96c-0.6,1.72-1.25,3.43-1.87,5.13c-3.78-0.34-6.89-3.41-11-2.62c0.8-2.19,1.54-4.68,2.62-7.01
		C249.75,175.66,250.88,176.84,251.82,177.17z"/>
	<path class="st0" d="M185.5,31.28c2.03,0.79,4.36,1.62,6.63,2.6c1.18,0.51,1.16,1.22-0.04,3.09c0.32-3.17-2.22-2.86-3.95-3.85
		c-0.54,1.38-1.02,2.59-1.54,3.91c1.43,0.59,2.74,1.12,4.05,1.66c-0.04,0.15-0.09,0.3-0.13,0.45c-1.43,0.13-2.6-0.93-4.23-1.2
		c-0.52,1.3-1.05,2.66-1.66,4.19c2.03,0.64,3.79,2.32,5.92,0.27c-0.43,1.76-1.35,2.34-2.82,1.81c-1.77-0.64-3.5-1.36-5.46-2.13
		c1.05-2.72,2.12-5.37,3.06-8.06C185.58,33.25,185.44,32.35,185.5,31.28z"/>
	<path class="st0" d="M211.35,229.8c2.27-1.86,4.17-3.62,6.29-5.08c1.29-0.89,1.83,0.43,2.37,1.5c-2.46-1.67-3.47,0.63-5.15,1.69
		c0.86,1.08,1.68,2.09,2.58,3.22c1.23-0.92,2.4-1.79,3.57-2.67c0.12,0.16,0.24,0.31,0.36,0.47c-1.06,0.95-2.13,1.91-3.28,2.94
		c0.95,1.14,1.86,2.24,2.92,3.52c1.44-1.51,3.85-2.15,3.1-5.07c1.28,1.36,1.3,2.38,0.13,3.4c-1.42,1.23-2.89,2.41-4.47,3.71
		c-1.28-1.53-2.43-3.09-3.78-4.45C214.75,231.73,214.26,229.39,211.35,229.8z"/>
	<path class="st0" d="M51.79,200.26c2.15-2.15-0.12-3.54-0.71-5.47c-1.3,0.7-2.44,1.32-3.71,2c0.67,1.36,1.31,2.67,1.95,3.97
		c-0.18,0.09-0.36,0.18-0.54,0.27c-0.74-1.23-1.49-2.46-2.27-3.76c-1.32,0.73-2.58,1.41-3.91,2.15c1.01,1.94,1.49,4.2,4.33,4.21
		c-2.43,0.81-2.63,0.73-3.74-1.28c-0.79-1.45-1.59-2.9-2.35-4.29c2.83-2.6,7.1-2.93,9.29-6.47c1.09,2,2.4,4.17,3.45,6.45
		C54.29,199.51,52.92,199.85,51.79,200.26z"/>
	<path class="st0" d="M113.35,249.17c-0.35-2.46-0.94-2.94-4.24-3.55c-0.42,1.15-0.85,2.33-1.35,3.71c0.75,0.3,1.45,0.57,2.14,0.86
		c0.64,0.27,1.27,0.57,1.91,0.85c-0.08,0.18-0.16,0.36-0.23,0.54c-1.3-0.44-2.6-0.87-4.09-1.37c-0.52,1.44-1.02,2.81-1.58,4.35
		c2.08,0.43,3.88,2.35,6.16-0.28c-0.89,2.39-1.47,2.72-3.18,2.14c-1.72-0.59-3.43-1.21-5.14-1.82c0.45-3.74,3.18-6.87,2.82-10.92
		c2.06,0.74,4.55,1.44,6.85,2.54C114.78,246.86,113.91,248.03,113.35,249.17z"/>
	<path class="st0" d="M165.84,27.45c-0.21,1.2-0.42,2.44-0.66,3.83c1.48,0.3,2.84,0.58,4.2,0.86c-0.03,0.21-0.05,0.41-0.08,0.62
		c-1.38-0.18-2.75-0.37-4.28-0.57c-0.27,1.48-0.53,2.87-0.82,4.39c2.11,0.45,4.13,1.59,5.89-0.82c-0.19,2-0.88,2.57-2.57,2.3
		c-1.8-0.3-3.59-0.62-5.44-0.94c-0.32-3.77,2.19-7.35,0.75-11.28c2.3,0.42,4.91,0.74,7.42,1.44c1.41,0.39,0.59,1.67,0.46,2.58
		C169.82,27.75,168.78,27.21,165.84,27.45z"/>
	<path class="st0" d="M227.62,230.62c-1.49-3.8-2.98-7.6-4.66-11.88c0.98,0.24,1.43,0.31,1.85,0.47c2.43,0.94,4.83,1.95,7.27,2.83
		c1.03,0.38,2.15,0.52,3.19,0.76c-0.68,1.4-2.01,2.1-3.79,1.41c-2.21-0.86-2.47,1.33-3.65,2.07c-0.99,0.62-0.43,1.43-0.16,2.21
		c0.22,0.64,0.39,1.31,0.58,1.96C228.04,230.5,227.83,230.56,227.62,230.62z M226.78,226.16c0.97-1.03,1.72-1.82,2.59-2.74
		c-1.4-0.54-2.64-1.02-4.27-1.65C225.73,223.4,226.2,224.65,226.78,226.16z"/>
	<path class="st0" d="M67.67,232.55c-1.43-0.82-2.02-1.98-1.39-3.64c0.39-1.05,0.14-1.62-0.56-2.44c-1.37-1.61-2.74-2.42-4.74-1.12
		c-0.22,0.14-0.61,0.02-0.92,0.02c-0.03-0.16-0.06-0.31-0.09-0.47c1.1-0.44,2.19-0.88,3.29-1.32c2.31-0.92,4.62-1.86,6.94-2.76
		c0.37-0.14,0.82-0.07,1.24-0.1c-0.03,0.41,0.04,0.85-0.1,1.21c-0.88,2.33-1.85,4.62-2.69,6.96
		C68.2,230.09,67.97,231.36,67.67,232.55z M64.58,223.98c0.88,0.89,1.63,1.65,2.53,2.57c0.53-1.37,1.01-2.6,1.63-4.19
		C67.16,222.98,65.95,223.45,64.58,223.98z"/>
	<path class="st0" d="M200.9,50.39c-1.82-0.5-2.63-1.4-2.55-3.22c0.04-1.03-0.28-1.53-1.17-2.06c-1.77-1.04-3.35-1.62-4.9,0.31
		c-0.18,0.22-0.65,0.21-1.18-0.02c0.43-0.38,0.84-0.77,1.28-1.13c2.41-1.95,4.82-3.91,7.26-5.83c0.34-0.27,0.83-0.33,1.26-0.49
		c0.07,0.4,0.23,0.8,0.21,1.19c-0.18,2.82-0.45,5.63-0.58,8.45C200.47,48.49,200.75,49.4,200.9,50.39z M198.47,44.94
		c0.1-1.65,0.18-2.96,0.29-4.7c-1.41,1.15-2.44,1.99-3.62,2.95C196.27,43.78,197.18,44.27,198.47,44.94z"/>
	<path class="st0" d="M64.92,62.74c-0.83-0.26-1.24-0.37-1.63-0.52c-1.45-0.56-2.63-0.09-3.57,1.01c-0.95,1.09-1.41,2.48-0.48,3.66
		c1.14,1.44,2.44,2.92,3.99,3.82c2.49,1.45,5.09-0.28,5.19-3.18c0.02-0.59,0-1.18,0-1.77c0.19-0.02,0.38-0.05,0.57-0.07
		c0.04,0.93,0.27,1.89,0.08,2.78c-0.52,2.52-3.28,4.61-5.7,4.49c-2.81-0.13-5.51-2.71-5.92-5.65c-0.34-2.49,1.45-5.34,3.87-6.17
		C62.59,60.71,63.45,61.03,64.92,62.74z"/>
	<path class="st0" d="M112.69,29.19c3.57,3.11,5.32,7.16,8.82,9.47c-1.48,0.91-2.82,0.85-3.97-0.52c-0.74-0.88-1.39-0.86-2.42-0.65
		c-2.02,0.41-3.39,1.15-3.19,3.51c0.02,0.29-0.3,0.61-0.46,0.91c-0.15-0.04-0.3-0.08-0.45-0.12
		C111.55,37.77,112.09,33.74,112.69,29.19z M113.06,32.76c-0.22,1.79-0.39,3.13-0.58,4.7c1.27-0.37,2.28-0.67,3.55-1.05
		C115.02,35.18,114.19,34.15,113.06,32.76z"/>
	<path class="st0" d="M258.88,104.74c1.15,2.14,0.9,2.79-1.69,3.58c-1.53,0.47-3.09,0.89-4.58,1.46c-1.78,0.67-2.52,1.88-2.18,3.24
		c0.46,1.82,1.59,2.7,3.59,2.34c2-0.36,3.94-1.06,5.91-1.6c0.54-0.15,1.09-0.27,1.63-0.4c0.06,0.14,0.12,0.28,0.19,0.42
		c-0.26,0.19-0.48,0.48-0.77,0.57c-2.06,0.64-4.11,1.32-6.21,1.82c-2.64,0.63-4.27-0.39-5.1-2.95c-0.85-2.64-0.11-4.53,2.37-5.57
		c1.42-0.6,2.96-0.9,4.4-1.46C257.3,105.84,258.06,105.23,258.88,104.74z"/>
	<path class="st0" d="M88.97,244.99c-0.72,0.22-1.43,0.57-2.16,0.65c-2.24,0.23-4.88-1.42-5.75-3.5c-0.92-2.18-0.16-5.04,1.81-6.8
		c2.74-2.45,6.77-1.96,8.86,1.07c0.98,1.41,0.85,2.35-0.65,3.88c0.05-0.5,0.05-0.86,0.12-1.2c0.36-1.64-0.3-2.83-1.68-3.63
		c-1.4-0.82-2.87-0.77-3.95,0.46c-1.04,1.19-1.95,2.54-2.65,3.95c-0.64,1.3-0.55,2.75,0.59,3.85c1.1,1.06,2.42,1.53,3.97,1.04
		c0.43-0.13,0.87-0.21,1.31-0.31C88.85,244.62,88.91,244.81,88.97,244.99z"/>
	<path class="st0" d="M243.23,199.5c-0.82-0.09-1.29-0.15-1.76-0.2c-1.51-0.17-2.55,0.5-3.28,1.77c-0.71,1.24-0.67,2.47,0.19,3.58
		c1.41,1.81,3.27,3.01,5.57,3.3c2.27,0.28,4.18-2.16,3.67-4.6c-0.11-0.51-0.31-1-0.47-1.51c0.16-0.08,0.33-0.15,0.49-0.23
		c0.24,0.55,0.59,1.08,0.7,1.66c0.42,2.21-0.96,4.91-3,6.01c-2.1,1.13-4.87,0.62-6.88-1.27c-1.84-1.73-2.53-4.44-1.4-6.51
		c0.59-1.08,1.47-2.09,2.45-2.83C240.71,197.76,241.94,198.2,243.23,199.5z"/>
	<path class="st0" d="M130.66,29.61c-0.45-0.6-0.71-0.92-0.94-1.26c-0.86-1.25-2.07-1.64-3.49-1.33c-1.43,0.32-2.58,1.22-2.56,2.68
		c0.03,1.83,0.18,3.81,0.89,5.46c1.16,2.68,4.46,2.77,6.23,0.39c0.33-0.44,0.63-0.9,0.94-1.34c0.17,0.1,0.33,0.19,0.5,0.29
		c-0.38,0.66-0.67,1.39-1.16,1.95c-1.61,1.81-5.16,2.22-7.23,0.9c-2.37-1.52-3.33-5.13-2.1-7.88c1.15-2.57,4.16-3.9,6.98-3.13
		C130.26,26.75,130.78,27.75,130.66,29.61z"/>
	<path class="st0" d="M220.42,62.14c-1.03,0.04-2.09,0.28-3.07,0.09c-2.57-0.48-4.53-3.09-4.45-5.68c0.08-2.77,2.43-5.44,5.19-5.9
		c2.71-0.45,5.55,1.13,6.46,3.59c0.46,1.25,0.15,2.13-1.37,3.43c0.18-0.69,0.32-1.14,0.42-1.59c0.33-1.45-0.11-2.61-1.32-3.49
		c-1.2-0.88-2.6-1.11-3.71-0.21c-1.3,1.06-2.44,2.38-3.39,3.77c-0.81,1.19-0.89,2.64,0.11,3.89c1.01,1.27,2.36,1.77,3.98,1.52
		c0.35-0.05,0.7-0.11,1.05-0.16C220.35,61.66,220.38,61.9,220.42,62.14z"/>
	<path class="st0" d="M35.87,99.21c4.6-0.68,8.79,0.33,12.75-0.99c0.02,1.53-0.96,2.74-2.68,2.74c-1.22,0-1.65,0.52-2.15,1.52
		c-0.92,1.84-1.15,3.38,0.77,4.69c0.2,0.13,0.29,0.44,0.39,0.69c0.03,0.07-0.06,0.2-0.2,0.61C41.7,105.5,38.83,102.57,35.87,99.21z
		 M43.47,101.24c-1.63,0-2.95,0-4.38,0c1.06,1.13,2,2.14,3.05,3.27C42.62,103.35,43,102.4,43.47,101.24z"/>
	<path class="st0" d="M240.99,71.28c1.53,2.16,2.8,3.9,4.02,5.68c1.06,1.55,0.78,2.17-1.47,2.99c2-2.29-0.06-3.44-0.95-5.03
		c-1.2,0.85-2.27,1.62-3.42,2.44c0.69,1.09,1.32,2.08,1.94,3.08c-0.14,0.11-0.29,0.22-0.43,0.34c-0.74-0.9-1.49-1.81-2.32-2.81
		c-1.39,0.95-2.79,1.91-4.31,2.95c-0.41-0.56-0.79-1.09-1.3-1.78c1.61-1.15,3.25-2.16,4.7-3.39
		C238.81,74.59,241.18,74.28,240.99,71.28z"/>
	<path class="st0" d="M31.98,175.05c-0.27-1.02-0.41-1.55-0.63-2.37c4.89-0.34,7.19-3.91,9.67-7.85c0.13,1.14,0.5,2.14,0.27,2.97
		c-0.26,0.96-1.01,1.8-1.63,2.63c-0.59,0.79-1.3,1.49-2.03,2.33c2.02,1.05,4.35,1.09,6.02,2.65
		C39.76,174.72,36.06,172.56,31.98,175.05z"/>
	<path class="st0" d="M146.87,251.41c1.66-0.09,3.64-0.2,5.63-0.31c2.2-0.13,2.57,0.27,2.34,3.04c-0.92-2.85-2.88-2.14-4.76-2.08
		c0,1.41,0,2.71,0,4.25c1.3,0,2.51,0,3.71,0c0.01,0.17,0.02,0.34,0.03,0.52c-1.18,0.13-2.36,0.25-3.59,0.39c0,1.77,0,3.41,0,5.17
		c-0.66,0.07-1.29,0.13-1.98,0.2C147.5,258.83,148.72,254.93,146.87,251.41z"/>
	<path class="st0" d="M96.86,48.25c-0.74,0.39-1.27,0.66-1.96,1.02c-1.65-3.05-3.27-6.04-4.9-9.03c-1.81,0.46-2.49,1.49-1.97,3.41
		c-1.71-1.93-1.63-2.56,0.27-3.59c1.75-0.95,3.51-1.88,5.28-2.81c0.37-0.19,0.78-0.31,1.18-0.47c0.08,0.16,0.16,0.32,0.24,0.48
		c-0.99,0.61-1.98,1.21-3.01,1.85C93.61,42.14,95.19,45.11,96.86,48.25z"/>
	<path class="st0" d="M47.69,83.05c-2.35-0.86-2.57-1.43-1.43-3.18c1.12-1.72,2.26-3.42,3.41-5.12c0.22-0.32,0.52-0.58,0.79-0.87
		c0.14,0.09,0.27,0.18,0.41,0.28c-0.57,0.99-1.14,1.98-1.77,3.07c2.85,1.9,5.66,3.76,8.61,5.73c-0.41,0.62-0.79,1.19-1.25,1.87
		c-2.92-1.94-5.73-3.8-8.52-5.66C46.35,80.81,46.31,81.18,47.69,83.05z"/>
	<path class="st0" d="M136.78,26.08c-1.8-0.2-2.9,0.31-3.17,2.3c-0.74-2.47-0.43-2.91,1.78-3.07c2.34-0.16,4.67-0.34,7-0.52
		c0.03,0.18,0.07,0.35,0.1,0.53c-0.5,0.11-1.01,0.34-1.51,0.3c-1.59-0.1-2.11,0.44-1.89,2.11c0.36,2.73,0.45,5.51,0.66,8.47
		c-0.75,0.05-1.37,0.08-2.18,0.13C137.32,32.88,137.06,29.54,136.78,26.08z"/>
	<path class="st0" d="M260.07,141.1c1.4,0.03,2.51,1.18,2.5,2.58c-0.01,1.4-1.14,2.54-2.53,2.55c-1.44,0.01-2.66-1.23-2.6-2.67
		C257.5,142.19,258.69,141.07,260.07,141.1z"/>
	<path class="st0" d="M35.71,143.61c0.03,1.44-1,2.56-2.42,2.63c-1.44,0.07-2.65-1.11-2.64-2.59c0.01-1.41,1.13-2.55,2.52-2.55
		C34.58,141.1,35.69,142.19,35.71,143.61z"/>
	<path class="st0" d="M136.27,264.76c0.64-0.76,1.07-1.28,1.45-1.74c-0.06-0.25-0.07-0.36-0.11-0.45c-0.24-0.58-0.49-1.15-0.73-1.72
		c0.39-0.13,0.78-0.27,1.17-0.4c0.21,0.62,0.64,1.26,0.59,1.86C138.53,263.49,137.83,264.36,136.27,264.76z"/>
	<path class="st0" d="M142.37,173.79c0,7.2,0,14.35,0,21.64c-3.19,0-6.26,0-9.61,0c0-0.62,0-1.26,0-1.9c0-12.05,0-24.09,0-36.14
		c0-0.5,0.01-1-0.01-1.5c-0.15-4.6-1.13-5.72-5.67-6.42c0-0.62,0-1.25,0-1.88c0.24-0.07,0.4-0.16,0.55-0.15
		c7.55,0.05,15.1-0.06,22.64,0.26c2.99,0.13,6.03,0.95,8.88,1.93c5.53,1.92,7.86,5.79,7.62,11.65c-0.22,5.28-3.23,8.41-7.81,10.36
		c-1.21,0.52-2.48,0.91-3.88,1.43c0.89,1.5,1.71,2.92,2.57,4.32c2.19,3.6,4.32,7.24,6.63,10.76c1.74,2.64,3.99,4.76,7.2,5.58
		c0.52,1.47-0.01,2.02-1.53,2.3c-5.86,1.07-10.65-0.78-14.01-5.54c-3.41-4.84-6.47-9.94-9.5-15.03
		C145.46,173.81,144.4,173.15,142.37,173.79z M142.41,170.44c5.97,0.98,10.87-0.67,12.88-4.26c2.06-3.67,1.57-9.88-1-12.72
		c-2.68-2.97-7.78-3.98-11.88-2.33C142.41,157.52,142.41,163.94,142.41,170.44z"/>
	<path class="st0" d="M87.69,124.74c1.56-0.46,2.23-0.04,2.34,1.38c0.06,0.82,0.37,1.62,0.58,2.42c2.46,9.46,10.45,10.94,17.09,9.54
		c2.59-0.55,4.61-1.97,5.32-4.7c0.75-2.88,0.11-5.55-2.19-7.4c-2.75-2.21-5.76-4.12-8.71-6.07c-2.96-1.95-6.11-3.64-8.97-5.73
		c-4.57-3.34-6.29-8.01-5.04-13.5c1.2-5.3,5.23-7.83,10.16-8.9c5.36-1.16,10.74-0.88,15.86,1.21c1.66,0.68,3.17,1.79,4.61,2.88
		c1.35,1.03,1.85,2.57,1.84,4.28c-0.02,2.66,0,5.31,0,8.02c-1.34,0.44-1.96,0.37-2.4-1.21c-0.71-2.59-1.56-5.25-2.95-7.52
		c-2.86-4.66-10.23-6.44-15.13-4.01c-4.13,2.05-5.14,7.61-1.77,10.79c1.79,1.69,3.94,3.05,6.04,4.38c3.04,1.93,6.2,3.67,9.28,5.55
		c1.28,0.78,2.47,1.69,3.7,2.54c8.01,5.5,6.52,17.99-3.16,21.46c-7.05,2.53-14.17,2.37-21.1-0.58c-3.59-1.53-5.9-4.02-5.44-8.36
		C87.88,129.1,87.69,126.92,87.69,124.74z"/>
	<path class="st0" d="M166.55,128.67c0.5,0.39,1.28,1,2.11,1.65c-2.68,4.71-6.12,8.48-11.27,10.21c-6.63,2.22-13.34,2.26-19.88-0.33
		c-6.19-2.46-10.3-7.07-12.38-13.35c-2.33-7.04-2.17-14.12,0.72-20.99c4.39-10.44,14.12-15.97,25.41-14.7
		c4.02,0.45,7.85,1.36,11.28,3.63c2.61,1.73,4,4.1,4.08,7.21c0.05,1.93,0.01,3.87,0.01,5.92c-0.53,0-1.22,0-1.82,0
		c-0.7-1.87-1.26-3.74-2.07-5.49c-2.59-5.58-7.11-8.2-13.18-8.09c-6.14,0.12-11.06,2.69-13.31,8.52
		c-3.41,8.83-3.72,17.95-0.04,26.78c3.96,9.51,15.25,12.23,23.76,5.82C162.42,133.61,164.29,131.04,166.55,128.67z"/>
	<path class="st0" d="M184.2,150.97c0,6,0,12.03,0,18.26c5.25,0,10.44,0,15.76,0c0,1.2,0,2.21,0,3.38c-5.24,0-10.43,0-15.85,0
		c0,3.92,0,7.68,0,11.44c0,3.77,0,7.53,0,11.41c-3.2,0-6.23,0-9.46,0c0-0.7,0-1.35,0-1.99c0-11.99,0.01-23.99-0.01-35.98
		c0-1.27-0.11-2.55-0.31-3.81c-0.44-2.69-1.61-3.73-4.29-4.01c-0.37-0.04-0.75-0.07-1.19-0.12c0-0.68,0-1.27,0-2.12
		c0.63,0,1.21,0,1.8,0c9.38,0,18.77-0.01,28.15,0.01c0.99,0,2,0.1,2.97,0.32c1.83,0.41,3.23,1.55,3.46,3.41
		c0.34,2.67,0.33,5.38,0.47,8.18c-0.92,0-1.51,0-2.21,0c-0.12-0.73-0.24-1.48-0.38-2.23c-0.68-3.63-2.63-5.82-6.26-6.08
		C192.71,150.75,188.54,150.97,184.2,150.97z"/>
</g>
</svg>
